<svg width="513" height="513" viewBox="0 0 513 513" fill="none" xmlns="http://www.w3.org/2000/svg">
<g clip-path="url(#clip0_18_367)">
<path d="M256.667 512.667C398.052 512.667 512.667 398.052 512.667 256.667C512.667 115.282 398.052 0.666748 256.667 0.666748C115.282 0.666748 0.666748 115.282 0.666748 256.667C0.666748 398.052 115.282 512.667 256.667 512.667Z" fill="#4487DA"/>
<path d="M41.874 256.667C41.874 122.219 145.522 11.9874 277.27 1.49398C270.473 0.952108 263.604 0.666748 256.667 0.666748C115.282 0.666748 0.666748 115.282 0.666748 256.667C0.666748 398.052 115.282 512.667 256.667 512.667C263.603 512.667 270.473 512.381 277.27 511.839C145.522 501.346 41.874 391.115 41.874 256.667Z" fill="#006AD0"/>
<path d="M385.435 284.997H279.846V179.407C279.846 171.222 273.21 164.586 265.025 164.586H248.309C240.123 164.586 233.488 171.222 233.488 179.407V284.997H127.898C119.712 284.997 113.077 291.632 113.077 299.818V316.534C113.077 324.72 119.712 331.355 127.898 331.355H233.488V436.944C233.488 445.13 240.123 451.766 248.309 451.766H265.025C273.21 451.766 279.846 445.13 279.846 436.944V331.355H385.435C393.621 331.355 400.256 324.72 400.256 316.534V299.818C400.256 291.632 393.621 284.997 385.435 284.997Z" fill="white"/>
<path d="M151.779 152.962C173.153 152.962 190.481 139.163 190.481 122.142C190.481 105.12 173.153 91.3218 151.779 91.3218C130.404 91.3218 113.077 105.12 113.077 122.142C113.077 139.163 130.404 152.962 151.779 152.962Z" fill="#FF97C1"/>
<path d="M361.555 152.962C382.929 152.962 400.256 139.163 400.256 122.142C400.256 105.12 382.929 91.3218 361.555 91.3218C340.18 91.3218 322.853 105.12 322.853 122.142C322.853 139.163 340.18 152.962 361.555 152.962Z" fill="#FF97C1"/>
<path d="M174.334 100.2C170.065 100.2 166.607 96.7404 166.607 92.4734V76.6529C166.607 72.3859 170.065 68.9265 174.334 68.9265C178.602 68.9265 182.06 72.3859 182.06 76.6529V92.4734C182.06 96.7404 178.602 100.2 174.334 100.2Z" fill="#423E4F"/>
<path d="M338.999 100.2C334.731 100.2 331.272 96.7404 331.272 92.4734V76.6529C331.272 72.3859 334.731 68.9265 338.999 68.9265C343.267 68.9265 346.725 72.3859 346.725 76.6529V92.4734C346.725 96.7404 343.267 100.2 338.999 100.2Z" fill="#423E4F"/>
<path d="M256.667 109.618C246.115 109.618 236.08 105.048 229.135 97.0792C226.331 93.862 226.666 88.982 229.883 86.1779C233.099 83.3747 237.979 83.7085 240.783 86.9258C244.794 91.5266 250.583 94.1649 256.667 94.1649C262.75 94.1649 268.538 91.5266 272.548 86.9258C275.352 83.7085 280.233 83.3737 283.449 86.1768C286.665 88.9799 287.001 93.8609 284.198 97.0782C277.254 105.048 267.22 109.618 256.667 109.618Z" fill="#423E4F"/>
</g>
<defs>
<clipPath id="clip0_18_367">
<rect width="512" height="512" fill="white" transform="translate(0.666748 0.666748)"/>
</clipPath>
</defs>
</svg>
