<svg width="683" height="683" viewBox="0 0 683 683" fill="none" xmlns="http://www.w3.org/2000/svg">
<g clip-path="url(#clip0_18_377)">
<mask id="mask0_18_377" style="mask-type:luminance" maskUnits="userSpaceOnUse" x="0" y="0" width="683" height="683">
<path d="M0 0.333374H682.667V683H0V0.333374Z" fill="white"/>
</mask>
<g mask="url(#mask0_18_377)">
<path d="M180.376 177.43C138.574 177.43 104.372 143.228 104.372 101.426V76.399C104.372 34.5964 138.574 0.393707 180.376 0.393707C222.179 0.393707 256.38 34.5964 256.38 76.399V101.426C256.38 143.228 222.179 177.43 180.376 177.43Z" fill="#FCE3A0"/>
<path d="M180.376 576.794C86.4285 576.794 9.56183 499.928 9.56183 405.98V239.552C9.56183 145.604 86.4285 68.7385 180.376 68.7385C274.324 68.7385 351.191 145.604 351.191 239.552V405.98C351.191 499.928 274.324 576.794 180.376 576.794Z" fill="#F2C7AE"/>
<path d="M104.372 405.98V239.552C104.372 162.036 156.704 96.1558 227.781 75.4798C212.714 71.0971 196.808 68.7371 180.376 68.7371C86.4278 68.7371 9.56116 145.604 9.56116 239.552V405.98C9.56116 499.928 86.4278 576.794 180.376 576.794C196.808 576.794 212.714 574.436 227.781 570.052C156.704 549.376 104.372 483.496 104.372 405.98Z" fill="#EAAA83"/>
<path d="M289.844 242.685C289.844 303.142 240.833 352.151 180.376 352.151C119.92 352.151 70.909 303.142 70.909 242.685C70.909 182.227 119.92 133.218 180.376 133.218C240.833 133.218 289.844 182.227 289.844 242.685Z" fill="#F7F0EB"/>
<path d="M104.372 321.425V239.551C104.372 203.966 115.424 170.85 134.232 143.417C96.8398 160.829 70.9092 198.718 70.9092 242.685C70.9092 273.609 83.7532 301.517 104.372 321.425Z" fill="#EFE2DD"/>
<path d="M286.061 385.326V350.128C286.061 292.003 238.504 244.444 180.377 244.444C122.25 244.444 74.6917 292.003 74.6917 350.13V385.326C74.6917 400.37 62.4957 412.566 47.4517 412.566H23.9637C9.22771 412.566 -2.12297 425.779 0.335698 440.308C14.9104 526.411 90.2917 592.527 180.376 592.527C270.46 592.527 345.842 526.411 360.417 440.308C362.876 425.779 351.525 412.566 336.788 412.566H313.301C298.257 412.566 286.061 400.37 286.061 385.326Z" fill="#EFB899"/>
<path d="M147.844 360.013C147.844 319.281 154.742 280.508 167.184 245.304C115.228 251.852 74.6916 296.472 74.6916 350.129V385.325C74.6916 400.37 62.4956 412.566 47.4516 412.566H23.9649C9.22758 412.566 -2.12309 425.778 0.335575 440.308C14.9102 526.412 90.2916 592.528 180.376 592.528H180.377C199.256 592.528 217.485 589.613 234.649 584.23C181.618 530.802 147.844 450.197 147.844 360.013Z" fill="#E4996D"/>
<path d="M117.157 475.883C117.157 492.142 100.606 505.322 80.19 505.322C59.774 505.322 43.2233 492.142 43.2233 475.883C43.2233 459.624 59.774 446.444 80.19 446.444C100.606 446.444 117.157 459.624 117.157 475.883Z" fill="white"/>
<path d="M243.596 475.883C243.596 492.142 260.147 505.322 280.563 505.322C300.979 505.322 317.529 492.142 317.529 475.883C317.529 459.624 300.979 446.444 280.563 446.444C260.147 446.444 243.596 459.624 243.596 475.883Z" fill="white"/>
<path d="M101.734 432.795V447.182" stroke="#495560" stroke-width="20" stroke-miterlimit="10" stroke-linecap="round" stroke-linejoin="round"/>
<path d="M159.643 447.095C164.684 452.88 172.1 456.54 180.376 456.54C188.652 456.54 196.068 452.88 201.109 447.095" stroke="#495560" stroke-width="20" stroke-miterlimit="10" stroke-linecap="round" stroke-linejoin="round"/>
<path d="M245.124 446.781C245.124 437.573 252.588 430.109 261.796 430.109C271.004 430.109 278.468 437.573 278.468 446.781" stroke="#495560" stroke-width="20" stroke-miterlimit="10" stroke-linecap="round" stroke-linejoin="round"/>
<path d="M502.29 267.841C460.488 267.841 426.286 233.64 426.286 191.837V166.811C426.286 125.008 460.488 90.8053 502.29 90.8053C544.093 90.8053 578.294 125.008 578.294 166.811V191.837C578.294 233.64 544.093 267.841 502.29 267.841Z" fill="#FCE3A0"/>
<path d="M502.29 667.206C408.342 667.206 331.476 590.339 331.476 496.391V329.963C331.476 236.015 408.342 159.15 502.29 159.15C596.238 159.15 673.105 236.015 673.105 329.963V496.391C673.105 590.339 596.238 667.206 502.29 667.206Z" fill="#F2C7AE"/>
<path d="M426.286 496.391V329.963C426.286 252.447 478.618 186.567 549.695 165.891C534.628 161.509 518.722 159.149 502.29 159.149C408.342 159.149 331.475 236.015 331.475 329.963V496.391C331.475 590.339 408.342 667.206 502.29 667.206C518.722 667.206 534.628 664.847 549.695 660.463C478.618 639.787 426.286 573.907 426.286 496.391Z" fill="#EAAA83"/>
<path d="M611.758 333.096C611.758 393.554 562.747 442.564 502.291 442.564C441.834 442.564 392.823 393.554 392.823 333.096C392.823 272.639 441.834 223.63 502.291 223.63C562.747 223.63 611.758 272.639 611.758 333.096Z" fill="#F7F0EB"/>
<path d="M426.286 411.837V329.964C426.286 294.378 437.338 261.262 456.146 233.829C418.754 251.241 392.823 289.13 392.823 333.097C392.823 364.021 405.667 391.929 426.286 411.837Z" fill="#EFE2DD"/>
<path d="M607.975 475.738V440.54C607.975 382.415 560.418 334.856 502.291 334.856C444.164 334.856 396.606 382.415 396.606 440.542V475.738C396.606 490.782 384.41 502.978 369.366 502.978H345.878C331.142 502.978 319.791 516.191 322.25 530.72C336.824 616.823 412.206 682.939 502.29 682.939C592.374 682.939 667.756 616.823 682.331 530.72C684.79 516.191 673.439 502.978 658.702 502.978H635.215C620.171 502.978 607.975 490.782 607.975 475.738Z" fill="#EFB899"/>
<path d="M469.758 450.425C469.758 409.693 476.656 370.919 489.098 335.715C437.142 342.263 396.606 386.883 396.606 440.541V475.737C396.606 490.782 384.41 502.978 369.366 502.978H345.879C331.142 502.978 319.791 516.19 322.25 530.719C336.824 616.823 412.206 682.939 502.29 682.939H502.291C521.17 682.939 539.399 680.025 556.563 674.642C503.532 621.214 469.758 540.609 469.758 450.425Z" fill="#E4996D"/>
<path d="M439.248 566.105C439.248 582.319 422.744 595.461 402.385 595.461C382.025 595.461 365.521 582.319 365.521 566.105C365.521 549.892 382.025 536.749 402.385 536.749C422.744 536.749 439.248 549.892 439.248 566.105Z" fill="white"/>
<path d="M565.333 566.105C565.333 582.319 581.837 595.461 602.195 595.461C606.187 595.461 610.03 594.956 613.63 594.021C628.391 590.191 639.059 579.14 639.059 566.105C639.059 549.892 622.555 536.749 602.195 536.749C581.837 536.749 565.333 549.892 565.333 566.105Z" fill="white"/>
<path d="M423.868 522.777V537.846" stroke="#495560" stroke-width="20" stroke-miterlimit="10" stroke-linecap="round" stroke-linejoin="round"/>
<path d="M580.712 522.777V537.846" stroke="#495560" stroke-width="20" stroke-miterlimit="10" stroke-linecap="round" stroke-linejoin="round"/>
<path d="M481.615 537.398C486.641 543.166 494.037 546.816 502.291 546.816C510.543 546.816 517.939 543.166 522.965 537.398" stroke="#495560" stroke-width="20" stroke-miterlimit="10" stroke-linecap="round" stroke-linejoin="round"/>
</g>
</g>
<defs>
<clipPath id="clip0_18_377">
<rect width="682.667" height="682.667" fill="white" transform="translate(0 0.333496)"/>
</clipPath>
</defs>
</svg>
