<svg width="513" height="513" viewBox="0 0 513 513" fill="none" xmlns="http://www.w3.org/2000/svg">
<g clip-path="url(#clip0_18_454)">
<path d="M143.152 233.033C151.367 235.123 159.973 236.234 168.839 236.234L286.344 280.261L412.525 236.234C431.422 236.234 446.783 221.095 447.142 202.285C447.513 182.875 431.256 166.987 411.841 166.987H334.303C372.548 166.987 403.55 135.984 403.55 97.7404C403.55 59.4959 372.547 28.4937 334.303 28.4937H206.791L150.927 43.2139L95.4033 179.709L143.152 233.033Z" fill="#FF6E80"/>
<path d="M142.67 215.955C142.67 145.322 166.606 80.2891 206.791 28.4927H168.838C111.472 28.4927 64.9676 74.9971 64.9676 132.363C64.9676 180.864 98.2095 221.597 143.152 233.03C142.842 227.376 142.67 221.686 142.67 215.955Z" fill="#F9475E"/>
<path d="M301.188 484.175H364.936L387.624 475.51L409.714 484.175H489.664C502.368 484.175 512.667 473.876 512.667 461.172V303.752C512.667 266.462 482.438 236.234 445.149 236.234H143.355L107.975 268.18L135.879 388.288L220.265 470.131L301.188 484.175Z" fill="#4A66A0"/>
<path d="M143.355 236.234H68.1848C30.8954 236.234 0.666763 266.462 0.666763 303.752V461.172C0.666763 473.876 10.9655 484.175 23.6697 484.175H78.5062L107.975 472.751L138.927 484.175H301.188C212.267 435.142 150.353 343.187 143.355 236.234Z" fill="#2A4F95"/>
<path d="M424.935 282.1C436.457 276.042 449.925 285.826 447.724 298.657C446.851 303.752 448.539 308.95 452.242 312.559C461.564 321.646 456.42 337.477 443.536 339.35C438.421 340.094 433.998 343.307 431.71 347.942C425.948 359.616 409.303 359.616 403.541 347.942C401.253 343.306 396.83 340.093 391.714 339.35C378.832 337.478 373.687 321.646 383.009 312.559C386.711 308.95 388.4 303.752 387.527 298.657C385.326 285.826 398.794 276.041 410.316 282.1C414.892 284.505 420.358 284.505 424.935 282.1Z" fill="#F8EA69"/>
<path d="M138.774 478.727C137.755 473.659 139.296 468.414 142.894 464.702C151.953 455.353 146.36 439.675 133.429 438.171C128.295 437.574 123.783 434.488 121.364 429.919C115.272 418.414 98.6329 418.888 93.2059 430.722C91.0507 435.42 86.7219 438.758 81.6297 439.647C68.805 441.885 64.1146 457.857 73.6912 466.675C77.4946 470.177 79.3304 475.326 78.602 480.444C78.4197 481.727 78.397 482.975 78.5062 484.177H138.927C139.181 482.444 139.154 480.616 138.774 478.727Z" fill="#F9D171"/>
<path d="M89.5199 318.116C82.0047 307.725 79.4303 295.27 81.3382 283.541C82.3807 277.135 75.7124 272.363 70.0216 275.484C67.4596 276.889 64.9871 278.562 62.6404 280.508C44.5195 295.536 40.6429 322.203 53.7036 341.788C68.3672 363.778 98.2074 369.01 119.426 353.663C121.031 352.502 122.538 351.258 123.947 349.94C128.666 345.528 126.17 337.724 119.79 336.712C108.055 334.85 97.034 328.504 89.5199 318.116Z" fill="#FFEAB7"/>
<path d="M412.984 482.196C434.974 467.532 440.206 437.692 424.859 416.473C423.698 414.868 422.454 413.361 421.136 411.952C416.724 407.234 408.92 409.73 407.908 416.11C406.046 427.845 399.701 438.866 389.312 446.38C378.921 453.896 366.465 456.47 354.737 454.562C348.331 453.52 343.559 460.188 346.68 465.879C348.085 468.441 349.758 470.913 351.704 473.26C355.479 477.812 359.989 481.463 364.937 484.175H409.714C410.822 483.563 411.915 482.91 412.984 482.196Z" fill="#FFF8E6"/>
<path d="M174.709 400.32C191.41 400.32 204.95 389.538 204.95 376.237C204.95 362.937 191.41 352.155 174.709 352.155C158.007 352.155 144.468 362.937 144.468 376.237C144.468 389.538 158.007 400.32 174.709 400.32Z" fill="#FFA1AC"/>
<path d="M338.625 400.32C355.327 400.32 368.866 389.538 368.866 376.237C368.866 362.937 355.327 352.155 338.625 352.155C321.923 352.155 308.384 362.937 308.384 376.237C308.384 389.538 321.923 400.32 338.625 400.32Z" fill="#FFA1AC"/>
<path d="M192.333 360.781C188.066 360.781 184.607 357.322 184.607 353.054V340.692C184.607 336.424 188.066 332.966 192.333 332.966C196.6 332.966 200.059 336.424 200.059 340.692V353.054C200.059 357.322 196.6 360.781 192.333 360.781Z" fill="#303646"/>
<path d="M321.001 360.781C316.734 360.781 313.274 357.322 313.274 353.054V340.692C313.274 336.424 316.734 332.966 321.001 332.966C325.268 332.966 328.727 336.424 328.727 340.692V353.054C328.727 357.322 325.268 360.781 321.001 360.781Z" fill="#303646"/>
<path d="M256.667 368.14C247.934 368.14 239.629 364.359 233.881 357.764C231.077 354.548 231.412 349.668 234.629 346.864C237.846 344.059 242.725 344.394 245.53 347.612C248.343 350.838 252.402 352.689 256.668 352.689C260.934 352.689 264.993 350.838 267.805 347.612C270.609 344.396 275.489 344.061 278.706 346.864C281.924 349.667 282.257 354.548 279.454 357.764C273.705 364.359 265.4 368.14 256.667 368.14Z" fill="#303646"/>
<path d="M357.251 173.683H160.911C137.618 173.683 118.668 154.602 118.668 131.147C118.668 107.693 137.618 88.6118 160.911 88.6118H357.251C361.518 88.6118 364.977 92.0701 364.977 96.3382C364.977 100.606 361.518 104.065 357.251 104.065H160.911C146.139 104.065 134.121 116.213 134.121 131.147C134.121 146.08 146.139 158.23 160.911 158.23H357.251C361.518 158.23 364.977 161.689 364.977 165.957C364.977 170.225 361.518 173.683 357.251 173.683Z" fill="#F6334C"/>
</g>
<defs>
<clipPath id="clip0_18_454">
<rect width="512" height="512" fill="white" transform="translate(0.666748 0.333496)"/>
</clipPath>
</defs>
</svg>
