<svg width="513" height="513" viewBox="0 0 513 513" fill="none" xmlns="http://www.w3.org/2000/svg">
<g clip-path="url(#clip0_18_501)">
<path d="M410.568 144.533C403.42 139.808 393.796 141.769 389.071 148.915C374.227 171.36 369.012 198.241 374.387 224.606L376.187 233.443C377.899 241.838 386.092 247.257 394.486 245.545C402.881 243.834 408.3 235.641 406.589 227.246L404.787 218.409C401.068 200.165 404.678 181.563 414.95 166.031C419.675 158.883 417.713 149.258 410.568 144.533Z" fill="#50E1CD"/>
<path d="M348.295 299.006C339.781 294.588 320.895 294.777 315.053 289.182C266.031 242.236 318.78 157.247 381.746 191.279C387.155 194.202 393.692 194.202 399.101 191.279C469.57 153.191 512.508 257.522 432.552 299.006H348.295Z" fill="#FF6F7F"/>
<path d="M67.5585 125.088C81.9656 76.1684 100.199 45.6792 100.199 45.6792H194.727C194.727 45.6792 212.527 75.4442 226.861 123.36L197.366 173.185H103.015L67.5585 125.088Z" fill="#80D8E6"/>
<path d="M103.39 173.185C114.809 125.148 137.82 81.6088 169.312 45.6792H100.199C100.199 45.6792 81.9656 76.1684 67.5585 125.088L103.015 173.185H103.39Z" fill="#3CCADD"/>
<path d="M241.919 285.797L147.462 304.723L53.0072 285.797C45.457 223.619 55.0758 167.451 67.5585 125.088C130.781 126.008 131.38 168.475 226.861 123.361C239.581 165.908 249.572 222.77 241.919 285.797Z" fill="#FBE29F"/>
<path d="M319.051 196.611H197.632C183.473 196.611 171.995 208.089 171.995 222.248V225.393C171.995 273.081 210.654 311.741 258.342 311.741C306.03 311.741 344.69 273.082 344.69 225.393V222.248C344.69 208.089 333.211 196.611 319.051 196.611Z" fill="#FFB3DD"/>
<path d="M192.827 0.333496H102.099C83.9115 0.333496 69.1666 15.0785 69.1666 33.2663C69.1666 51.4552 83.9115 66.1992 102.099 66.1992H192.827C211.016 66.1992 225.76 51.4542 225.76 33.2663C225.761 15.0785 211.016 0.333496 192.827 0.333496Z" fill="#B3E8F0"/>
<path d="M86.0678 317.873L30.645 488.104C26.753 500.06 35.6641 512.334 48.2385 512.334H80.0206C88.0323 512.334 95.1333 507.178 97.614 499.559L149.989 338.684L86.0678 317.873Z" fill="#E27858"/>
<path d="M427.266 317.873L482.688 488.104C486.581 500.06 477.669 512.334 465.095 512.334H433.313C425.301 512.334 418.2 507.178 415.719 499.559L363.344 338.684L427.266 317.873Z" fill="#E27858"/>
<path d="M95.2796 242.548C95.2796 204.596 102.371 168.305 115.274 134.904C102.411 130.201 88.3815 125.391 67.5585 125.087C55.0758 167.449 45.457 223.618 53.0072 285.796L99.9062 295.193C96.8682 278.103 95.2796 260.511 95.2796 242.548Z" fill="#FCCB88"/>
<path d="M478.643 285.8H34.6905C16.1576 285.8 1.13446 300.823 1.13446 319.356V353.75C1.13446 372.282 16.1576 387.306 34.6905 387.306H478.642C497.175 387.306 512.198 372.282 512.198 353.75V319.356C512.198 300.823 497.175 285.8 478.643 285.8Z" fill="#ED9B83"/>
<path d="M154.862 348.238C150.595 348.238 147.136 344.779 147.136 340.512V320.95C147.136 316.682 150.595 313.223 154.862 313.223C159.129 313.223 162.589 316.682 162.589 320.95V340.512C162.589 344.779 159.129 348.238 154.862 348.238Z" fill="#423E4F"/>
<path d="M358.471 348.238C354.204 348.238 350.745 344.779 350.745 340.512V320.95C350.745 316.682 354.204 313.223 358.471 313.223C362.738 313.223 366.198 316.682 366.198 320.95V340.512C366.198 344.779 362.738 348.238 358.471 348.238Z" fill="#423E4F"/>
<path d="M256.667 359.883C244.148 359.883 232.242 354.46 224.002 345.005C221.199 341.788 221.533 336.908 224.751 334.104C227.968 331.301 232.849 331.636 235.652 334.853C240.956 340.939 248.616 344.431 256.667 344.431C264.718 344.431 272.378 340.939 277.682 334.853C280.486 331.636 285.366 331.301 288.584 334.104C291.801 336.907 292.136 341.788 289.333 345.005C281.092 354.46 269.187 359.883 256.667 359.883Z" fill="#423E4F"/>
<path d="M98.4072 285.8H34.6905C16.1576 285.8 1.13446 300.823 1.13446 319.356V353.75C1.13446 372.281 16.1576 387.306 34.6905 387.306H132.643C115.503 356.414 103.681 322.17 98.4072 285.8Z" fill="#E7886E"/>
<path d="M152.864 66.2002C169.471 43.5197 189.195 23.2694 211.412 6.07985C206.122 2.4567 199.723 0.333496 192.827 0.333496H102.099C83.9115 0.333496 69.1666 15.0785 69.1666 33.2663C69.1666 51.4542 83.9115 66.1992 102.099 66.1992L152.864 66.2002Z" fill="#80D8E6"/>
</g>
<defs>
<clipPath id="clip0_18_501">
<rect width="512" height="512" fill="white" transform="translate(0.666748 0.333496)"/>
</clipPath>
</defs>
</svg>
