<svg width="513" height="513" viewBox="0 0 513 513" fill="none" xmlns="http://www.w3.org/2000/svg">
<g clip-path="url(#clip0_18_482)">
<path d="M418.112 261.055C422.141 217.271 426.162 174.159 430.173 131.801C383.221 120.223 335.064 113.442 286.699 111.458L202.651 133.905L213.13 265.376L314.647 278.178L416.592 277.609L418.112 261.055Z" fill="#CEEAFB"/>
<path d="M245.029 237.643V218.552C245.029 177.264 260.826 139.671 286.699 111.472C218.324 108.666 149.537 115.432 83.1595 131.8C88.4045 187.175 93.6639 243.836 98.9366 301.608L189.799 311.905L245.029 237.643Z" fill="#A7D4F1"/>
<path d="M207.213 100.504V27.568C207.213 12.5268 195.019 0.333496 179.978 0.333496H179.384C164.343 0.333496 152.15 12.5268 152.15 27.568V100.504H207.213Z" fill="#E68A97"/>
<path d="M152.15 141.531V442.556C152.15 457.597 164.343 469.79 179.384 469.79H179.978C195.019 469.79 207.213 457.597 207.213 442.556V141.531H152.15Z" fill="#DE5C6E"/>
<path d="M412.031 163.164H101.303C83.4652 163.164 69.0045 148.703 69.0045 130.866V111.602C69.0045 93.7639 83.4652 79.3032 101.303 79.3032H412.031C429.868 79.3032 444.329 93.7639 444.329 111.602V130.866C444.329 148.703 429.868 163.164 412.031 163.164Z" fill="#95CBEC"/>
<path d="M412.359 323.974C413.771 308.44 415.182 292.983 416.592 277.607C417.595 266.673 413.192 255.976 404.878 248.802C388.473 234.646 369.267 223.194 338.19 223.194C303.356 223.194 283.438 237.584 265.662 254.04V308.382L361.021 338.299L412.359 323.974Z" fill="#F5EA72"/>
<path d="M294.889 511.337C299.224 511.111 303.557 510.845 307.887 510.541C358.481 506.589 399.801 463.236 403.729 419.737C406.61 387.508 409.486 355.581 412.359 323.974C413.961 306.342 397.166 293.004 380.213 298.105C372.669 300.376 364.588 301.674 355.837 301.674C296.777 301.674 280.594 260.311 245.033 237.643L158.381 280.562L172.624 415.604L209.349 498.101L294.889 511.337Z" fill="#F9F29D"/>
<path d="M245.029 395.963V237.65C231.605 229.093 215.428 223.194 193.135 223.194C154.311 223.194 134.015 241.068 114.562 259.757C103.265 270.612 97.5132 286.006 98.9377 301.609C102.488 340.498 106.044 379.89 109.606 419.738C113.534 463.237 154.854 506.591 205.448 510.543C235.206 512.63 265.098 512.893 294.89 511.336C264.197 482.441 245.029 441.442 245.029 395.963Z" fill="#F5EA72"/>
<path d="M185.478 287.116C194.963 287.116 202.652 279.427 202.652 269.942C202.652 260.457 194.963 252.769 185.478 252.769C175.994 252.769 168.305 260.457 168.305 269.942C168.305 279.427 175.994 287.116 185.478 287.116Z" fill="#DE5C6E"/>
<path d="M172.625 458.736C182.11 458.736 189.799 451.047 189.799 441.562C189.799 432.078 182.11 424.389 172.625 424.389C163.141 424.389 155.452 432.078 155.452 441.562C155.452 451.047 163.141 458.736 172.625 458.736Z" fill="#DE5C6E"/>
<path d="M256.667 480.132C266.152 480.132 273.841 472.443 273.841 462.958C273.841 453.474 266.152 445.785 256.667 445.785C247.182 445.785 239.494 453.474 239.494 462.958C239.494 472.443 247.182 480.132 256.667 480.132Z" fill="#E68A97"/>
<path d="M337.218 458.736C346.703 458.736 354.392 451.047 354.392 441.562C354.392 432.078 346.703 424.389 337.218 424.389C327.733 424.389 320.044 432.078 320.044 441.562C320.044 451.047 327.733 458.736 337.218 458.736Z" fill="#E68A97"/>
<path d="M203.604 370.008C203.611 383.633 189.747 394.685 172.638 394.693C155.529 394.702 141.654 383.664 141.647 370.039C141.639 356.414 155.504 345.362 172.613 345.353C189.722 345.345 203.597 356.383 203.604 370.008Z" fill="#E89FA9"/>
<path d="M309.563 369.955C309.57 383.58 323.445 394.618 340.554 394.609C357.663 394.601 371.527 383.549 371.52 369.924C371.513 356.299 357.638 345.261 340.529 345.27C323.42 345.278 309.555 356.33 309.563 369.955Z" fill="#E89FA9"/>
<path d="M286.944 358.813C286.935 340.047 273.339 338.29 256.567 338.299C239.796 338.307 226.202 340.077 226.211 358.844C226.221 377.611 239.824 392.817 256.595 392.809C273.366 392.801 286.953 377.58 286.944 358.813Z" fill="#4E5660"/>
<path d="M175.921 350.897C171.659 350.897 168.204 347.443 168.202 343.181C168.196 330.795 178.268 320.711 190.654 320.705H190.666C203.048 320.705 213.124 330.774 213.13 343.158C213.132 347.422 209.678 350.879 205.415 350.881C205.414 350.881 205.412 350.881 205.411 350.881C201.148 350.881 197.693 347.428 197.691 343.166C197.689 339.293 194.538 336.144 190.666 336.144C190.665 336.144 190.664 336.144 190.663 336.144C186.789 336.146 183.638 339.298 183.64 343.173C183.642 347.437 180.188 350.894 175.925 350.897C175.923 350.897 175.922 350.897 175.921 350.897Z" fill="#4F5C6F"/>
<path d="M307.728 350.83C303.466 350.83 300.011 347.377 300.009 343.115C300.006 337.114 302.34 331.472 306.581 327.226C310.821 322.981 316.462 320.641 322.463 320.638H322.475C328.47 320.638 334.109 322.972 338.351 327.211C342.597 331.451 344.935 337.091 344.938 343.092C344.94 347.356 341.486 350.813 337.223 350.815C337.222 350.815 337.22 350.815 337.219 350.815C332.957 350.815 329.502 347.362 329.5 343.1C329.498 339.227 326.347 336.078 322.474 336.078C322.473 336.078 322.472 336.078 322.471 336.078C320.595 336.079 318.83 336.81 317.504 338.138C316.177 339.466 315.448 341.231 315.449 343.107C315.451 347.371 311.997 350.829 307.734 350.831C307.73 350.83 307.729 350.83 307.728 350.83Z" fill="#4F5C6F"/>
</g>
<defs>
<clipPath id="clip0_18_482">
<rect width="512" height="512" fill="white" transform="translate(0.666748 0.333496)"/>
</clipPath>
</defs>
</svg>
