<svg width="513" height="513" viewBox="0 0 513 513" fill="none" xmlns="http://www.w3.org/2000/svg">
<g clip-path="url(#clip0_18_472)">
<path d="M256.667 512.333C398.052 512.333 512.667 397.718 512.667 256.333C512.667 114.949 398.052 0.333496 256.667 0.333496C115.282 0.333496 0.666748 114.949 0.666748 256.333C0.666748 397.718 115.282 512.333 256.667 512.333Z" fill="#FF97C1"/>
<path d="M41.874 256.333C41.874 121.886 145.522 11.6542 277.27 1.16073C270.473 0.618856 263.604 0.333496 256.667 0.333496C115.282 0.333496 0.666748 114.948 0.666748 256.333C0.666748 397.719 115.282 512.333 256.667 512.333C263.603 512.333 270.473 512.048 277.27 511.506C145.522 501.013 41.874 390.781 41.874 256.333Z" fill="#FF5D9C"/>
<path d="M293.089 297.541L391.62 199.009C397.261 193.369 397.261 184.225 391.62 178.585L375.622 162.586C369.982 156.946 360.838 156.946 355.197 162.586L256.667 261.118L158.135 162.586C152.495 156.946 143.351 156.946 137.711 162.586L121.712 178.585C116.072 184.225 116.072 193.369 121.712 199.009L220.244 297.541L121.712 396.073C116.072 401.713 116.072 410.857 121.712 416.497L137.711 432.496C143.351 438.136 152.495 438.136 158.135 432.496L256.667 333.964L355.198 432.496C360.839 438.136 369.983 438.136 375.623 432.496L391.621 416.497C397.262 410.857 397.262 401.713 391.621 396.073L293.089 297.541Z" fill="white"/>
<path d="M159.02 138.035C178.919 138.035 195.05 125.189 195.05 109.342C195.05 93.4955 178.919 80.6494 159.02 80.6494C139.121 80.6494 122.99 93.4955 122.99 109.342C122.99 125.189 139.121 138.035 159.02 138.035Z" fill="#FF5D9C"/>
<path d="M354.313 138.204C374.212 138.204 390.343 125.357 390.343 109.511C390.343 93.6645 374.212 80.8184 354.313 80.8184C334.415 80.8184 318.284 93.6645 318.284 109.511C318.284 125.357 334.415 138.204 354.313 138.204Z" fill="#FF5D9C"/>
<path d="M180.043 89.2847C180.041 89.2847 180.039 89.2847 180.037 89.2847C175.77 89.2816 172.313 85.8191 172.317 81.5521L172.328 67.1718C172.331 62.9069 175.789 59.4517 180.054 59.4517H180.061C184.328 59.4548 187.785 62.9172 187.781 67.1842L187.769 81.5645C187.766 85.8294 184.308 89.2847 180.043 89.2847Z" fill="#423E4F"/>
<path d="M333.34 89.4341C333.338 89.4341 333.336 89.4341 333.334 89.4341C329.067 89.431 325.611 85.9686 325.614 81.7016L325.625 67.3213C325.628 63.0563 329.086 59.6011 333.351 59.6011H333.358C337.625 59.6042 341.081 63.0666 341.078 67.3336L341.066 81.7139C341.063 85.9789 337.604 89.4341 333.34 89.4341Z" fill="#423E4F"/>
<path d="M276.893 95.7612C276.891 95.7612 276.889 95.7612 276.886 95.7612L236.471 95.7262C232.204 95.722 228.748 92.2606 228.752 87.9936C228.756 83.7287 232.214 80.2734 236.478 80.2734H236.486L276.901 80.3085C281.168 80.3126 284.624 83.774 284.62 88.041C284.616 92.306 281.156 95.7612 276.893 95.7612Z" fill="#423E4F"/>
</g>
<defs>
<clipPath id="clip0_18_472">
<rect width="512" height="512" fill="white" transform="translate(0.666748 0.333496)"/>
</clipPath>
</defs>
</svg>
