<svg width="512" height="512" viewBox="0 0 512 512" fill="none" xmlns="http://www.w3.org/2000/svg">
<g clip-path="url(#clip0_18_559)">
<path d="M333.848 326.567C327.397 317.443 321.534 303.86 301.42 293.093C305.593 274.679 294.262 251.074 269.113 247.034C268.357 220.938 240.404 210.518 216.511 217.534C208.83 208.123 195.768 203.914 182.392 203.914C169.17 203.914 155.946 208.107 148.253 217.521C124.06 210.507 96.4981 221.05 95.7244 247.035C71.2731 251.027 59.1705 273.69 63.3489 293.081C43.2264 303.852 37.3183 317.497 30.9055 326.567V347.171H182.377H333.848V326.567Z" fill="#FFB357"/>
<path d="M281.766 170.892C259.539 148.666 227.294 142.583 199.57 152.616L112.885 23.9766L81.7037 23.9756V131.188L152.595 199.554C142.532 227.293 148.607 259.567 170.848 281.809C201.477 312.438 283.574 344.875 314.202 314.247C344.83 283.618 312.395 201.52 281.766 170.892Z" fill="#9EA2E3"/>
<path d="M112.885 23.9764C100.796 8.95021 82.569 0 63.3005 0C28.3969 0 0 28.3959 0 63.3005C0 82.568 8.61746 100.552 23.6447 112.642C23.8044 112.771 23.9703 112.892 24.1402 113.007L152.596 199.553C110.935 151.381 95.9655 85.3814 112.885 23.9764Z" fill="#8288CB"/>
<path d="M259.913 192.746C246.266 179.099 226.693 175.667 210.086 181.678C197.799 186.124 186.104 197.809 181.648 210.093C175.372 227.393 179.712 246.966 192.703 259.956C199.352 266.606 209.949 273.688 222.053 279.779L279.773 222.059C273.185 209.053 265.802 198.635 259.913 192.746Z" fill="#8288CB"/>
<path d="M481.095 326.567C474.644 317.443 468.781 303.86 448.667 293.093C452.84 274.679 441.509 251.074 416.36 247.034C415.604 220.938 387.651 210.518 363.758 217.534C356.077 208.123 343.015 203.914 329.638 203.914C316.417 203.914 303.193 208.107 295.5 217.521C271.306 210.507 243.745 221.05 242.971 247.035C218.52 251.027 206.417 273.69 210.596 293.081C190.473 303.851 184.564 317.496 178.152 326.566V347.17H329.624H481.095V326.567Z" fill="#FFCE71"/>
<path d="M481.095 326.567H30.9055L254.299 489.963C272.731 503.444 294.975 510.711 317.81 510.711C338.295 507.732 358.445 499.569 375.732 486.245C399.379 468.01 420.413 446.601 438.235 422.618C446.336 411.718 453.774 400.286 460.491 388.378H480.399C497.772 388.378 512.368 374.16 511.993 356.791C511.63 340.006 497.91 326.567 481.095 326.567Z" fill="#EFEDFF"/>
<path d="M175.131 388.378H154.527C137.459 388.378 123.622 374.541 123.622 357.473C123.622 340.405 137.459 326.567 154.527 326.567H30.9054C13.8374 326.567 0 340.405 0 357.473C0 374.541 13.8374 388.378 30.9054 388.378H51.5091C73.0038 426.482 101.874 459.721 136.268 486.245C157.914 502.937 184.476 512 211.81 512H300.19C306.115 512 312.001 511.555 317.81 510.711C296.816 507.686 276.843 499.318 259.889 486.245C225.495 459.721 196.626 426.482 175.131 388.378Z" fill="#D4D4FF"/>
<path d="M175.953 479.988C191.599 479.988 204.283 469.887 204.283 457.427C204.283 444.967 191.599 434.866 175.953 434.866C160.307 434.866 147.623 444.967 147.623 457.427C147.623 469.887 160.307 479.988 175.953 479.988Z" fill="#FF8E9E"/>
<path d="M336.047 479.988C351.693 479.988 364.377 469.887 364.377 457.427C364.377 444.967 351.693 434.866 336.047 434.866C320.401 434.866 307.717 444.967 307.717 457.427C307.717 469.887 320.401 479.988 336.047 479.988Z" fill="#FF8E9E"/>
<path d="M315.444 97.8364C306.909 97.8364 299.991 104.755 299.991 113.289C291.457 113.289 284.538 120.208 284.538 128.742C284.538 137.276 291.457 144.195 299.991 144.195C317.032 144.195 330.896 130.33 330.896 113.289C330.896 104.755 323.978 97.8364 315.444 97.8364Z" fill="#FFB357"/>
<path d="M431.964 140.369C425.929 134.335 416.146 134.335 410.111 140.369C398.061 152.419 398.061 172.026 410.111 184.076C416.146 190.111 425.929 190.111 431.964 184.076C437.999 178.041 437.999 168.257 431.964 162.223C437.998 156.188 437.998 146.404 431.964 140.369Z" fill="#FFB357"/>
<path d="M401.683 59.83C407.718 53.7952 407.718 44.0116 401.683 37.9768C395.648 31.942 385.865 31.942 379.83 37.9768C373.795 31.942 364.011 31.942 357.977 37.9768C351.942 44.0116 351.942 53.7952 357.977 59.83C370.027 71.879 389.633 71.879 401.683 59.83Z" fill="#FFB357"/>
<path d="M301.021 267.816C301.021 259.282 294.102 252.364 285.568 252.364C277.034 252.364 270.116 259.282 270.116 267.816C270.116 284.858 283.98 298.722 301.021 298.722C309.555 298.722 316.474 291.803 316.474 283.269C316.474 274.735 309.555 267.816 301.021 267.816Z" fill="#FFB357"/>
<path d="M358.601 251.629C346.551 263.679 346.551 283.286 358.601 295.336C364.636 301.37 374.419 301.37 380.454 295.336C386.489 289.301 386.489 279.517 380.454 273.482C386.489 267.448 386.489 257.664 380.454 251.629C374.42 245.594 364.636 245.594 358.601 251.629Z" fill="#FFB357"/>
<path d="M99.2044 311.115C99.2044 294.074 113.069 280.209 130.11 280.209C138.644 280.209 145.563 287.128 145.563 295.662C145.563 304.196 138.644 311.115 130.11 311.115C130.11 319.649 123.191 326.568 114.657 326.568C106.123 326.568 99.2044 319.649 99.2044 311.115Z" fill="#FFCE71"/>
<path d="M199.393 441.948V429.586C199.393 425.318 195.933 421.859 191.666 421.859C187.399 421.859 183.94 425.318 183.94 429.586V441.948C183.94 446.216 187.399 449.674 191.666 449.674C195.933 449.674 199.393 446.216 199.393 441.948Z" fill="#313D40"/>
<path d="M328.06 441.948V429.586C328.06 425.318 324.601 421.859 320.334 421.859C316.067 421.859 312.607 425.318 312.607 429.586V441.948C312.607 446.216 316.067 449.674 320.334 449.674C324.601 449.674 328.06 446.216 328.06 441.948Z" fill="#313D40"/>
<path d="M256 457.034C264.734 457.034 273.039 453.251 278.787 446.657C281.59 443.439 281.255 438.56 278.038 435.755C274.82 432.951 269.939 433.287 267.136 436.504C264.325 439.732 260.266 441.582 256 441.582C251.734 441.582 247.675 439.732 244.864 436.504C242.06 433.288 237.18 432.953 233.962 435.755C230.745 438.56 230.41 443.439 233.213 446.657C238.962 453.251 247.267 457.034 256 457.034Z" fill="#313D40"/>
</g>
<defs>
<clipPath id="clip0_18_559">
<rect width="512" height="512" fill="white"/>
</clipPath>
</defs>
</svg>
