<svg width="512" height="512" viewBox="0 0 512 512" fill="none" xmlns="http://www.w3.org/2000/svg">
<g clip-path="url(#clip0_18_646)">
<path d="M436.736 342.091L377.724 58.5509C369.918 53.1369 360.439 49.9629 350.219 49.9629C339.321 49.9629 329.267 53.5709 321.185 59.6579C310.487 67.7149 295.545 67.7149 284.848 59.6579C276.858 53.6409 266.941 50.0519 256.186 49.9699V49.9619C256.124 49.9619 256.062 49.9659 256 49.9659C255.938 49.9659 255.876 49.9619 255.814 49.9619V49.9699C245.059 50.0509 235.141 53.6399 227.152 59.6579C216.454 67.7149 201.512 67.7149 190.815 59.6579C182.733 53.5709 172.68 49.9629 161.781 49.9629C151.56 49.9629 142.082 53.1359 134.276 58.5509L75.264 342.091L155.518 452.997C174.103 458.864 193.884 462.036 214.408 462.036H297.593C318.117 462.036 337.898 458.864 356.483 452.997L436.736 342.091Z" fill="#F4F7FF"/>
<path d="M86.817 358.057C108.332 318.912 125.366 269.163 134.353 213.788C143.568 157.014 142.896 103.16 134.276 58.5518C133.762 58.9088 133.254 59.2748 132.755 59.6508C121.91 67.8118 106.876 67.8118 96.031 59.6508C87.95 53.5688 77.898 49.9648 67.005 49.9648C40.313 49.9648 18.676 71.6028 18.676 98.2938V101.122V182.178L18.988 264.321L86.817 358.057Z" fill="#E9EFFF"/>
<path d="M18.996 266.625L18.987 264.32C96.826 271.707 157.834 340.772 157.834 424.898C157.834 434.484 157.038 443.872 155.517 452.998C76.377 428.014 18.996 354.024 18.996 266.625Z" fill="#D3DCFB"/>
<path d="M425.183 358.057L493.012 264.32L493.324 182.177V101.121V98.2929C493.324 71.6009 471.686 49.9639 444.995 49.9639C434.101 49.9639 424.05 53.5689 415.969 59.6499C405.124 67.8109 390.09 67.8109 379.245 59.6499C378.745 59.2739 378.238 58.9079 377.724 58.5509C369.104 103.159 368.432 157.013 377.647 213.787C386.634 269.162 403.668 318.911 425.183 358.057Z" fill="#E9EFFF"/>
<path d="M120.915 204.939L35.457 190.839C12.475 187.047 -3.227 165.141 0.565 142.158C4.357 119.176 26.263 103.474 49.246 107.266L134.704 121.366C157.686 125.158 173.388 147.064 169.596 170.047C165.803 193.029 143.897 208.73 120.915 204.939Z" fill="#FFEBC0"/>
<path d="M170.901 315.468C188.308 315.468 202.419 304.23 202.419 290.368C202.419 276.505 188.308 265.268 170.901 265.268C153.494 265.268 139.383 276.505 139.383 290.368C139.383 304.23 153.494 315.468 170.901 315.468Z" fill="#FFA1AC"/>
<path d="M310.223 290.368C310.223 304.23 324.334 315.468 341.741 315.468C345.154 315.468 348.44 315.036 351.517 314.237C364.138 310.961 373.259 301.513 373.259 290.368C373.259 276.506 359.148 265.268 341.741 265.268C324.334 265.269 310.223 276.506 310.223 290.368Z" fill="#FFA1AC"/>
<path d="M189.27 273.707C185.128 273.707 181.77 270.35 181.77 266.207V253.322C181.77 249.179 185.128 245.822 189.27 245.822C193.412 245.822 196.77 249.179 196.77 253.322V266.207C196.77 270.35 193.412 273.707 189.27 273.707Z" fill="#495560"/>
<path d="M323.373 273.707C319.23 273.707 315.873 270.35 315.873 266.207V253.322C315.873 249.179 319.23 245.822 323.373 245.822C327.516 245.822 330.873 249.179 330.873 253.322V266.207C330.873 270.35 327.516 273.707 323.373 273.707Z" fill="#495560"/>
<path d="M256.321 281.377C247.379 281.377 238.875 277.504 232.989 270.751C230.267 267.629 230.593 262.891 233.715 260.169C236.837 257.448 241.575 257.773 244.297 260.896C247.333 264.379 251.716 266.377 256.321 266.377C260.925 266.377 265.308 264.379 268.345 260.896C271.066 257.772 275.804 257.447 278.926 260.17C282.049 262.892 282.373 267.629 279.652 270.751C273.767 277.504 265.263 281.377 256.321 281.377Z" fill="#495560"/>
<path d="M493.004 266.625L493.013 264.32C415.174 271.707 354.166 340.772 354.166 424.898C354.166 434.484 354.962 443.872 356.483 452.998C435.623 428.014 493.004 354.024 493.004 266.625Z" fill="#D3DCFB"/>
<path d="M85.019 162.933C85.019 139.422 104.078 120.363 127.589 120.363C127.998 120.363 128.402 120.382 128.808 120.394L49.245 107.267C26.263 103.475 4.356 119.176 0.564 142.159C-3.228 165.141 12.473 187.048 35.456 190.84L118.793 204.59C99.504 200.535 85.019 183.428 85.019 162.933Z" fill="#FCE3A0"/>
<path d="M462.754 107.266L377.296 121.366C354.314 125.158 338.612 147.064 342.404 170.047C346.196 193.029 368.102 208.731 391.085 204.939L476.543 190.839C499.525 187.047 515.227 165.141 511.435 142.158C507.643 119.176 485.737 103.474 462.754 107.266Z" fill="#FFEBC0"/>
<path d="M426.859 149.272C426.859 172.783 445.919 191.842 469.429 191.842C469.838 191.842 470.242 191.823 470.648 191.811L391.085 204.938C368.103 208.73 346.196 193.029 342.404 170.046C338.612 147.064 354.313 125.157 377.296 121.365L460.633 107.615C441.344 111.669 426.859 128.777 426.859 149.272Z" fill="#FCE3A0"/>
</g>
<defs>
<clipPath id="clip0_18_646">
<rect width="512" height="512" fill="white"/>
</clipPath>
</defs>
</svg>
