<svg width="512" height="512" viewBox="0 0 512 512" fill="none" xmlns="http://www.w3.org/2000/svg">
<g clip-path="url(#clip0_18_523)">
<path d="M410.527 206.036L442.463 185.432V30.905C442.463 13.835 428.628 0 411.557 0H181.145L101.473 30.905V206.036H410.527Z" fill="#E8EDF5"/>
<path d="M234.315 185.433C230.229 185.433 226.716 182.445 226.165 178.396C224.659 167.309 219.6 157.065 211.549 149.015C201.819 139.284 188.885 133.924 175.129 133.924H157.03C151.975 133.924 148.11 129.412 148.878 124.415C155.562 80.877 166.501 39.18 181.145 0H100.443C83.374 0 69.537 13.837 69.537 30.905V460.491H442.463V185.433H234.315Z" fill="#DBE2EC"/>
<path d="M380.652 162.254H267.847C263.58 162.254 260.121 158.795 260.121 154.528C260.121 150.261 263.58 146.802 267.847 146.802H380.652C384.919 146.802 388.378 150.261 388.378 154.528C388.378 158.795 384.919 162.254 380.652 162.254Z" fill="#77899B"/>
<path d="M151.127 110.744H380.652C384.919 110.744 388.378 107.285 388.378 103.018C388.378 98.75 384.919 95.292 380.652 95.292H154.035L139.617 103.018L151.127 110.744Z" fill="#77899B"/>
<path d="M123.622 103.018C123.622 107.286 127.081 110.744 131.348 110.744H151.127C152.036 105.565 153.006 100.414 154.035 95.291H131.348C127.081 95.292 123.622 98.751 123.622 103.018Z" fill="#5F7080"/>
<path d="M162.377 59.2352H380.652C384.919 59.2352 388.378 55.7762 388.378 51.5092C388.378 47.2422 384.919 43.7832 380.652 43.7832H166.645L151.127 51.5092L162.377 59.2352Z" fill="#77899B"/>
<path d="M123.622 51.5092C123.622 55.7772 127.081 59.2352 131.348 59.2352H162.377C163.738 54.0502 165.161 48.8982 166.645 43.7822H131.348C127.081 43.7832 123.622 47.2412 123.622 51.5092Z" fill="#5F7080"/>
<path d="M177.446 512H481.094C498.164 512 511.999 498.165 511.999 481.095V460.491L255.999 419.284L145.505 437.07L110.822 474.535L177.446 512Z" fill="#FFDB2F"/>
<path d="M0 460.491V481.095C0 498.165 13.835 512 30.905 512H177.446C165.279 488.203 154.58 463.163 145.506 437.069L0 460.491Z" fill="#FECC29"/>
<path d="M154.197 460.491H512V236.942C512 219.872 498.165 206.037 481.095 206.037H226.64C215.257 206.037 206.036 196.817 206.036 185.433C206.036 176.903 202.575 169.177 196.981 163.583C191.387 157.989 183.661 154.528 175.131 154.528H114.064L39.662 210.158V410.013L154.197 460.491Z" fill="#FFEF64"/>
<path d="M114.064 154.527H30.905C13.835 154.527 0 168.362 0 185.433V460.491H154.197C126.098 389.326 110.343 309.467 110.343 225.095C110.343 201.178 111.609 177.624 114.064 154.527Z" fill="#FFE54E"/>
<path d="M216.338 311.63H447.614C453.304 311.63 457.916 307.018 457.916 301.328V270.423C457.916 264.733 453.304 260.121 447.614 260.121H216.338C210.648 260.121 206.036 264.733 206.036 270.423V301.328C206.036 307.017 210.648 311.63 216.338 311.63Z" fill="#FFDB2F"/>
<path d="M116.612 316.47C128.319 311.248 136.499 299.499 136.499 285.875C136.499 270.14 125.588 256.906 110.935 253.34L101.473 260.121L111.853 270.165C117.336 273.26 121.046 279.143 121.046 285.876C121.046 291.452 118.501 296.445 114.512 299.755L106.967 313.348L116.612 316.47Z" fill="#FECC29"/>
<path d="M110.382 217.911C116.662 220.732 121.047 227.047 121.047 234.366C121.047 238.633 124.506 242.092 128.773 242.092C133.041 242.092 136.499 238.633 136.499 234.366C136.499 218.564 125.495 205.284 110.746 201.786L98.726 208.955L110.382 217.911Z" fill="#FECC29"/>
<path d="M103.018 303.902C93.077 303.902 84.99 295.814 84.99 285.874C84.99 281.607 81.531 278.148 77.264 278.148C72.996 278.148 69.538 281.607 69.538 285.874C69.538 301.677 80.543 314.957 95.293 318.455V327.082C95.293 331.349 98.752 334.808 103.019 334.808C107.287 334.808 110.745 331.349 110.745 327.082V318.455C112.778 317.973 114.74 317.304 116.613 316.469C115.844 310.925 115.143 305.353 114.513 299.753C111.39 302.343 107.382 303.902 103.018 303.902Z" fill="#FFBD1C"/>
<path d="M103.018 252.394C93.077 252.394 84.99 244.306 84.99 234.366C84.99 224.426 93.078 216.338 103.018 216.338C105.64 216.338 108.132 216.901 110.382 217.911C110.439 212.516 110.561 207.141 110.746 201.786C110.745 201.786 110.745 201.786 110.744 201.786V193.159C110.744 188.892 107.285 185.433 103.018 185.433C98.75 185.433 95.292 188.892 95.292 193.159V201.786C80.543 205.283 69.537 218.564 69.537 234.367C69.537 252.828 84.556 267.848 103.018 267.848C106.226 267.848 109.24 268.69 111.853 270.165C111.477 264.581 111.171 258.972 110.935 253.341C108.396 252.722 105.745 252.394 103.018 252.394Z" fill="#FFBD1C"/>
<path d="M174.042 427.73C190.744 427.73 204.283 416.948 204.283 403.648C204.283 390.348 190.744 379.566 174.042 379.566C157.34 379.566 143.801 390.348 143.801 403.648C143.801 416.948 157.34 427.73 174.042 427.73Z" fill="#FFA1AC"/>
<path d="M337.958 427.73C354.66 427.73 368.199 416.948 368.199 403.648C368.199 390.348 354.66 379.566 337.958 379.566C321.256 379.566 307.717 390.348 307.717 403.648C307.717 416.948 321.256 427.73 337.958 427.73Z" fill="#FFA1AC"/>
<path d="M256 378.061C244.003 378.061 233.319 369.999 226.599 379.941C219.783 390.026 235.049 405.664 256 405.664C276.951 405.664 292.217 390.026 285.401 379.941C278.681 370 267.997 378.061 256 378.061Z" fill="#495560"/>
<path d="M191.667 386.528C184.318 386.528 177.33 383.345 172.495 377.796C169.692 374.579 170.028 369.698 173.245 366.895C176.461 364.092 181.342 364.427 184.146 367.645C186.045 369.825 188.787 371.075 191.667 371.075C194.547 371.075 197.289 369.824 199.189 367.644C201.992 364.426 206.874 364.092 210.09 366.895C213.307 369.698 213.642 374.579 210.839 377.796C206.003 383.345 199.015 386.528 191.667 386.528Z" fill="#495560"/>
<path d="M320.334 386.528C312.985 386.528 305.997 383.345 301.162 377.797C298.359 374.58 298.694 369.699 301.911 366.896C305.128 364.093 310.009 364.427 312.812 367.645C314.712 369.825 317.454 371.076 320.334 371.076C323.214 371.076 325.956 369.825 327.855 367.646C330.658 364.428 335.539 364.093 338.756 366.896C341.973 369.699 342.309 374.58 339.506 377.797C334.671 383.345 327.683 386.528 320.334 386.528Z" fill="#495560"/>
</g>
<defs>
<clipPath id="clip0_18_523">
<rect width="512" height="512" fill="white"/>
</clipPath>
</defs>
</svg>
