<svg width="683" height="683" viewBox="0 0 683 683" fill="none" xmlns="http://www.w3.org/2000/svg">
<g clip-path="url(#clip0_18_626)">
<path d="M570.166 340.052C404.979 337.417 262.041 456.552 97.4321 457.068C63.8436 457.172 34.927 433.396 28.8905 400.354L0.708276 246.073C-4.11984 219.656 16.3437 195.255 43.1978 195.683C208.38 198.323 351.323 79.1878 515.932 78.6722C549.52 78.568 578.437 102.344 584.473 135.386L612.65 289.667C617.479 316.083 597.015 340.484 570.166 340.052Z" fill="#9AD880"/>
<path d="M570.166 340.052C597.015 340.485 617.479 316.084 612.651 289.667L596.239 199.808C508.114 223.584 413.698 259.594 315.745 277.99C178.193 303.823 55.9792 267.662 0.817749 246.657L28.8906 400.354C34.9271 433.396 63.8437 457.172 97.427 457.068C262.041 456.547 404.979 337.417 570.166 340.052Z" fill="#8DC971"/>
<path d="M106.802 213.38C105.417 205.786 102.995 198.672 99.7342 192.078C81.1405 194.661 62.3124 195.984 43.1978 195.677C16.3437 195.25 -4.11984 219.646 0.708276 246.068L11.8593 307.099C21.4999 308.995 31.6458 309.172 41.901 307.297C85.7551 299.286 114.812 257.24 106.802 213.38Z" fill="#8DC971"/>
<path d="M50.7031 355.484C40.4479 357.354 31.0208 361.109 22.6719 366.286L28.8906 400.349C34.9271 433.39 63.8437 457.166 97.427 457.062C113.021 457.01 128.411 455.906 143.646 453.932C146.245 443.26 146.713 431.885 144.614 420.385C136.604 376.531 94.5572 347.474 50.7031 355.484Z" fill="#7FB762"/>
<path d="M566.39 186.594C575.703 184.891 584.338 181.641 592.104 177.177L584.468 135.38C578.432 102.339 549.52 78.5627 515.927 78.6668C502.307 78.7085 488.838 79.5679 475.494 81.0991C471.166 93.7345 469.901 107.62 472.474 121.688C480.484 165.547 522.531 194.604 566.39 186.594Z" fill="#8DC971"/>
<path d="M612.651 289.662L602.572 234.49C593.734 233.063 584.505 233.073 575.192 234.776C531.333 242.787 502.276 284.833 510.286 328.693C511.234 333.865 512.661 338.813 514.505 343.542C532.812 341.031 551.343 339.75 570.166 340.047C597.015 340.479 617.479 316.078 612.651 289.662Z" fill="#7FB762"/>
<path d="M449.984 223.328C433.479 175.005 361.703 155.776 289.666 180.38C217.63 204.984 172.614 264.104 189.114 312.427C205.62 360.75 277.396 379.979 349.432 355.375C421.468 330.771 466.489 271.651 449.984 223.328Z" fill="#C8EFB9"/>
<path d="M185.953 286.057C185.219 295.016 186.208 303.886 189.125 312.422C205.63 360.745 277.411 379.969 349.448 355.365C412.02 333.99 454.213 286.578 453.401 242.818C408.526 256.391 362.526 269.203 315.739 277.99C270.166 286.547 226.281 288.302 185.953 286.057Z" fill="#9AD880"/>
<path d="M631.817 567.875C469.796 535.594 307.771 627.104 145.75 598.031C112.687 592.099 88.5155 563.515 88.5155 529.922V373.094C88.5155 346.234 113.031 325.911 139.37 331.156C301.39 363.437 463.411 271.927 625.432 301C658.494 306.932 682.666 335.516 682.666 369.109V525.937C682.666 552.797 658.156 573.12 631.817 567.875Z" fill="#B2E59C"/>
<path d="M198.76 360C198.76 352.276 197.656 344.838 195.63 337.771C176.88 336.974 158.125 334.891 139.37 331.151C113.031 325.906 88.5155 346.229 88.5155 373.088V435.13C97.6613 438.724 107.614 440.719 118.036 440.719C162.614 440.719 198.76 404.578 198.76 360Z" fill="#9AD880"/>
<path d="M118.036 489.703C107.614 489.703 97.6613 491.703 88.5155 495.296V529.921C88.5155 563.505 112.687 592.093 145.75 598.025C161.094 600.781 176.432 602.458 191.776 603.255C196.245 593.223 198.76 582.119 198.76 570.427C198.76 525.843 162.614 489.703 118.036 489.703Z" fill="#9AD880"/>
<path d="M655.677 416.229C665.145 416.229 674.229 414.588 682.666 411.593V369.099C682.666 335.51 658.494 306.927 625.432 300.995C612.026 298.588 598.624 297.015 585.218 296.12C578.692 307.771 574.953 321.203 574.953 335.505C574.953 380.088 611.093 416.229 655.677 416.229Z" fill="#9AD880"/>
<path d="M682.666 525.932V469.854C674.229 466.859 665.145 465.213 655.677 465.213C611.093 465.213 574.953 501.354 574.953 545.937C574.953 551.192 575.473 556.323 576.432 561.302C594.895 562.125 613.354 564.192 631.817 567.87C658.156 573.114 682.666 552.791 682.666 525.932Z" fill="#9AD880"/>
<path d="M522.349 432.083C515.895 381.427 449.442 348.161 373.927 357.786C298.416 367.406 242.427 416.276 248.885 466.932C255.338 517.588 321.786 550.854 397.302 541.229C472.817 531.609 528.802 482.745 522.349 432.083Z" fill="#E8FFDE"/>
<path d="M475.463 460.448C469.797 460.974 464.776 456.807 464.25 451.14L462.672 434.109C462.145 428.448 466.312 423.427 471.979 422.901C477.645 422.375 482.661 426.541 483.187 432.208L484.765 449.234C485.291 454.901 481.13 459.922 475.463 460.448Z" fill="#57565C"/>
<path d="M306.396 476.13C300.729 476.656 295.713 472.49 295.187 466.823L293.604 449.792C293.078 444.13 297.245 439.109 302.911 438.583C308.578 438.057 313.593 442.224 314.119 447.891L315.703 464.922C316.229 470.583 312.062 475.604 306.396 476.13Z" fill="#57565C"/>
<path d="M396.031 447.135C394.047 450.718 390.739 451.437 389.38 451.562C388.02 451.687 384.578 451.635 382.02 448.432C378.468 443.984 371.989 443.26 367.547 446.807C363.099 450.359 362.369 456.838 365.922 461.286C372.036 468.948 381.515 472.984 391.281 472.078C401.047 471.172 409.619 465.463 414.224 456.807C416.895 451.781 414.989 445.541 409.963 442.875C408.125 441.896 400.172 439.656 396.031 447.135Z" fill="#57565C"/>
<path d="M41.901 307.297C63.8385 303.292 82.0677 290.771 93.8125 273.766C54.5521 265.511 22.5 254.912 0.817749 246.651L11.8594 307.099C21.5 308.995 31.6458 309.172 41.901 307.297Z" fill="#7FB762"/>
</g>
<defs>
<clipPath id="clip0_18_626">
<rect width="682.667" height="682.667" fill="white"/>
</clipPath>
</defs>
</svg>
