<svg width="513" height="512" viewBox="0 0 513 512" fill="none" xmlns="http://www.w3.org/2000/svg">
<g clip-path="url(#clip0_18_590)">
<path d="M512.66 202.946L347.237 37.513C323.217 13.4943 290.641 0 256.673 0C222.705 0 190.128 13.4943 166.109 37.513L0.676025 202.946V450.189H512.667V202.946H512.66Z" fill="#FFB357"/>
<path d="M395.741 0H117.592C100.523 0 86.6869 13.8364 86.6869 30.9054V450.189H426.647V30.9054C426.647 13.8364 412.81 0 395.741 0Z" fill="#B9F0FF"/>
<path d="M174.709 123.806C174.709 95.1599 189.416 69.9606 211.681 55.3084C214.931 24.2278 241.209 0 273.15 0H117.592C100.523 0 86.6869 13.8374 86.6869 30.9054V450.189H211.339V192.084C189.264 177.399 174.709 152.306 174.709 123.806Z" fill="#7CE3FF"/>
<path d="M256.667 25.939C202.67 25.939 158.8 69.8896 158.8 123.806C158.8 162.661 181.836 197.865 217.502 213.497C237.938 222.431 260.282 223.871 280.769 218.681C289.042 216.584 294.049 208.179 291.953 199.905C289.856 191.632 281.453 186.628 273.177 188.721C259.42 192.209 244.074 191.384 229.894 185.184C205.479 174.484 189.704 150.392 189.704 123.806C189.704 86.8196 219.858 56.8444 256.666 56.8444C293.577 56.8444 323.627 86.9216 323.627 123.806C323.627 131.674 322.272 139.372 319.596 146.693C317.746 151.759 313.616 151.835 311.324 151.427C308.994 151.015 305.083 149.506 305.083 144.03V92.4897C305.083 83.9557 298.165 77.037 289.63 77.037C285.653 77.037 282.038 78.5534 279.299 81.0217C272.539 77.4315 264.837 75.3877 256.665 75.3877C229.967 75.3877 208.246 97.108 208.246 123.806C208.246 150.504 229.967 172.225 256.665 172.225C265.433 172.225 273.657 169.87 280.758 165.778C297.405 190.291 337.399 188.026 348.624 157.299C352.544 146.571 354.531 135.302 354.531 123.806C354.534 69.8072 310.581 25.939 256.667 25.939ZM256.667 141.319C247.01 141.319 239.154 133.463 239.154 123.806C239.154 114.149 247.01 106.293 256.667 106.293C266.324 106.293 274.18 114.149 274.18 123.806C274.18 133.463 266.324 141.319 256.667 141.319Z" fill="#4293DD"/>
<path d="M347.239 368.381C323.221 392.399 290.643 405.894 256.675 405.894C222.707 405.894 190.13 392.399 166.111 368.381L0.67602 202.946H0.666748V450.189C0.666748 484.326 28.3405 512 62.4776 512H450.856C484.993 512 512.667 484.326 512.667 450.189V202.953L347.239 368.381Z" fill="#FFCE71"/>
<path d="M347.237 284.755C323.218 260.736 290.641 247.242 256.673 247.242C222.705 247.242 190.128 260.736 166.109 284.755L0.666748 450.189C0.666748 484.327 28.3405 512 62.4776 512H450.856C484.993 512 512.667 484.327 512.667 450.189L347.237 284.755Z" fill="#FCE3A0"/>
<path d="M86.6869 450.189V364.173H0.666748V450.189C0.666748 484.326 28.3405 512 62.4776 512H148.498C114.361 512 86.6869 484.326 86.6869 450.189Z" fill="#FFCE71"/>
<path d="M174.709 403.813C158.007 403.813 144.468 414.595 144.468 427.896C144.468 441.196 158.006 451.978 174.709 451.978C191.41 451.978 204.95 441.196 204.95 427.896C204.95 414.595 191.411 403.813 174.709 403.813Z" fill="#FF8E9E"/>
<path d="M338.625 403.813C321.924 403.813 308.384 414.595 308.384 427.896C308.384 441.196 321.924 451.978 338.625 451.978C355.326 451.978 368.866 441.196 368.866 427.896C368.865 414.595 355.326 403.813 338.625 403.813Z" fill="#FF8E9E"/>
<path d="M192.333 384.624C188.065 384.624 184.607 388.082 184.607 392.35V404.713C184.607 408.981 188.065 412.439 192.333 412.439C196.601 412.439 200.059 408.981 200.059 404.713V392.35C200.059 388.083 196.6 384.624 192.333 384.624Z" fill="#313D40"/>
<path d="M321 384.624C316.732 384.624 313.273 388.082 313.273 392.35V404.713C313.273 408.981 316.732 412.439 321 412.439C325.268 412.439 328.726 408.981 328.726 404.713V392.35C328.726 388.083 325.268 384.624 321 384.624Z" fill="#313D40"/>
<path d="M278.703 398.52C275.487 395.716 270.605 396.051 267.803 399.27C264.992 402.497 260.933 404.347 256.667 404.347C252.401 404.347 248.343 402.497 245.531 399.27C242.727 396.052 237.846 395.718 234.63 398.52C231.413 401.323 231.077 406.204 233.88 409.421C239.627 416.016 247.933 419.799 256.666 419.799C265.399 419.799 273.705 416.016 279.451 409.421C282.257 406.204 281.921 401.322 278.703 398.52Z" fill="#313D40"/>
</g>
<defs>
<clipPath id="clip0_18_590">
<rect width="512" height="512" fill="white" transform="translate(0.666748)"/>
</clipPath>
</defs>
</svg>
