<svg width="512" height="512" viewBox="0 0 512 512" fill="none" xmlns="http://www.w3.org/2000/svg">
<g clip-path="url(#clip0_18_2)">
<path d="M346.854 73.137H93.146C42.017 73.137 0.56897 114.585 0.56897 165.714V419.422C0.56897 470.551 42.017 512 93.146 512H150.422L185.598 486.941L222.789 512H346.854C397.983 512 439.432 470.552 439.432 419.422V165.714C439.432 114.585 397.983 73.137 346.854 73.137Z" fill="#5871A5"/>
<path d="M126.677 198.998C126.677 154.479 135.381 111.999 151.145 73.137H93.146C42.017 73.137 0.56897 114.586 0.56897 165.714V419.422C0.56897 470.551 42.017 512 93.146 512H150.422L185.598 486.941L222.789 512H333.058C209.951 463.805 126.677 341.853 126.677 198.998Z" fill="#39599A"/>
<path d="M289.651 130.681H259.92C199.446 130.681 150.422 179.705 150.422 240.179V272.889H110.035C102.157 272.889 95.771 279.275 95.771 287.153V330.992C95.771 338.87 102.157 345.256 110.035 345.256H150.422V512H222.789V345.255H265.069C272.167 345.255 278.185 340.035 279.189 333.009L285.452 289.17C286.68 280.577 280.012 272.889 271.332 272.889H222.789V240.179C222.789 219.672 239.413 203.049 259.919 203.049H288.936C309.225 203.049 326.215 186.445 325.827 166.16C325.451 146.501 309.399 130.681 289.651 130.681Z" fill="#ECEBFF"/>
<path d="M383.955 254.952C454.358 254.952 511.431 197.879 511.431 127.476C511.431 57.0729 454.358 0 383.955 0C313.552 0 256.479 57.0729 256.479 127.476C256.479 197.879 313.552 254.952 383.955 254.952Z" fill="#53D2FF"/>
<path d="M336.136 83.9119C336.136 53.4609 345.581 25.2199 361.689 1.94189C301.903 12.4739 256.48 64.6689 256.48 127.476C256.48 197.879 313.553 254.952 383.956 254.952C414.007 254.952 441.624 244.548 463.415 227.153C391.748 218.758 336.136 157.834 336.136 83.9119Z" fill="#00C1FD"/>
<path d="M350.761 178.025L316.051 143.315C306.467 133.731 306.467 118.192 316.051 108.608C325.636 99.024 341.174 99.023 350.758 108.608L368.115 125.964L417.153 76.926C426.738 67.342 442.276 67.342 451.86 76.926C461.444 86.51 461.444 102.049 451.86 111.633L385.469 178.025C375.883 187.61 360.346 187.609 350.761 178.025Z" fill="#ECEBFF"/>
<path d="M134.34 272.888H110.035C102.157 272.888 95.771 279.274 95.771 287.152V330.992C95.771 338.87 102.157 345.256 110.035 345.256H150.422V512H222.789V439.106C179.027 394.65 147.929 337.284 134.34 272.888Z" fill="#D1D0FF"/>
<path d="M337.233 101.746C329.745 100.569 321.821 102.839 316.051 108.609C306.467 118.193 306.467 133.732 316.051 143.316L350.761 178.026C357.672 184.937 367.671 186.837 376.309 183.782C355.306 161.901 341.138 133.413 337.233 101.746Z" fill="#D1D0FF"/>
</g>
<defs>
<clipPath id="clip0_18_2">
<rect width="512" height="512" fill="white"/>
</clipPath>
</defs>
</svg>
