<svg width="512" height="513" viewBox="0 0 512 513" fill="none" xmlns="http://www.w3.org/2000/svg">
<g clip-path="url(#clip0_18_608)">
<path d="M448 0.666992H64C28.704 0.666992 0 29.371 0 64.667V448.667C0 483.963 28.704 512.667 64 512.667H448C483.296 512.667 512 483.963 512 448.667V64.667C512 29.371 483.296 0.666992 448 0.666992Z" fill="#1976D2"/>
<path d="M432 256.667H352V192.667C352 175.003 366.336 176.667 384 176.667H416V96.667H352C298.976 96.667 256 139.643 256 192.667V256.667H192V336.667H256V512.667H352V336.667H400L432 256.667Z" fill="#FAFAFA"/>
</g>
<defs>
<clipPath id="clip0_18_608">
<rect width="512" height="512" fill="white" transform="translate(0 0.666992)"/>
</clipPath>
</defs>
</svg>
