<svg width="512" height="512" viewBox="0 0 512 512" fill="none" xmlns="http://www.w3.org/2000/svg">
<g clip-path="url(#clip0_18_14)">
<path d="M56.982 94.6009C104.469 84.5579 104.095 158.544 97.228 217.212C89.471 261.689 40.857 303.3 0 288.871V164.75C0 130.203 24.442 101.366 56.982 94.6009Z" fill="#FFAF1E"/>
<path d="M250.849 13.7261L131.525 32.0641C81.417 41.9941 83.165 62.2091 85.929 80.1611L106.069 210.089C109.803 234.178 122.855 255.835 142.409 270.389C231.48 286.719 335 4.53706 250.849 13.7261Z" fill="#7BDFFC"/>
<path d="M131.525 32.064L95.045 37.671C69.787 41.56 52.452 65.184 56.341 90.443C57.559 98.369 75.803 217.048 75.828 217.212L116.364 256C124.768 264.169 133.517 268.759 142.41 270.39L112.423 76.937C109.659 58.985 117.622 41.867 131.525 32.064Z" fill="#1ECDFA"/>
<path d="M512 250.083V374.204C495.465 415.81 379.087 346.332 398.05 302.545C415.317 243.518 436.321 170.666 471.692 185.633C495.554 197.26 512 221.753 512 250.083Z" fill="#FFAF1E"/>
<path d="M432.356 333.576L493.899 102.214C500.467 77.514 485.779 52.1721 461.079 45.5941L335.871 12.28C283.928 -1.20695 282.272 18.526 277.785 35.398L246.377 163.219L261.268 211.613L307.925 302.545L432.356 333.576Z" fill="#727BEB"/>
<path d="M335.871 12.2801L295.626 1.57208C270.86 -5.03192 245.545 9.79609 239.006 34.3811L231.641 62.0601L216.375 124.121L261.267 211.613L302.125 45.3351C306.612 28.4631 319.943 16.1881 335.871 12.2801Z" fill="#5A6CD9"/>
<path d="M333.845 62.0601H209.526C168.888 62.0601 153.323 85.8001 153.323 104.475V333.575H380.122V108.337C380.121 82.7781 359.403 62.0601 333.845 62.0601Z" fill="#F0EDFF"/>
<path d="M209.526 62.0601C185.81 62.0601 167.013 62.0601 162.64 62.0601C137.081 62.0601 116.363 82.7781 116.363 108.337V333.576H183.337V104.476C183.337 85.8011 194.029 69.6671 209.526 62.0601Z" fill="#DCDBFF"/>
<path d="M512 440.341V374.205C512 334.822 480.101 302.546 440.341 302.546C429.899 302.546 240.778 302.546 231.311 302.546C213.272 302.546 196.909 292.006 189.441 275.591L182.004 259.217C170.674 234.29 145.715 217.212 116.403 217.212C69.302 217.212 46.546 254.529 46.546 283.32V440.547C46.546 474.453 58.182 512 129.331 512H440.342C479.915 512 512 479.915 512 440.341Z" fill="#FADE65"/>
<path d="M77.576 440.547V283.32C77.576 254.529 93.348 229.575 116.402 217.212C97.062 217.212 104.912 217.212 71.659 217.212C32.085 217.212 0 249.297 0 288.871V440.34C0 479.915 32.085 512 71.659 512H129.33C99.443 503.043 77.576 474.453 77.576 440.547Z" fill="#FFC647"/>
<path d="M139.636 309.982V302.866C139.636 289.833 129.075 279.273 116.043 279.273H77.685C55.795 282.893 46.545 326.163 77.576 333.576H116.043C129.076 333.576 139.636 323.015 139.636 309.982Z" fill="#F68953"/>
<path d="M77.685 279.273H70.139C57.106 279.273 46.546 289.834 46.546 302.866V309.982C46.546 323.015 57.107 333.575 70.139 333.575H77.576C77.616 280.627 77.487 283.105 77.685 279.273Z" fill="#DF6D2B"/>
<path d="M338.292 391.633C355.059 391.633 368.65 402.452 368.65 415.806C368.65 429.159 355.059 439.989 338.292 439.989C321.515 439.989 307.924 429.159 307.924 415.806C307.924 402.453 321.515 391.633 338.292 391.633Z" fill="#FFA1AC"/>
<path d="M173.708 391.633C190.485 391.633 204.076 402.452 204.076 415.806C204.076 429.159 190.485 439.989 173.708 439.989C156.941 439.989 143.35 429.159 143.35 415.806C143.35 402.453 156.941 391.633 173.708 391.633Z" fill="#FFA1AC"/>
<path d="M191.405 400.291C187.121 400.291 183.647 396.818 183.647 392.533V380.121C183.647 375.836 187.12 372.363 191.405 372.363C195.689 372.363 199.163 375.836 199.163 380.121V392.533C199.163 396.818 195.689 400.291 191.405 400.291Z" fill="#25383F"/>
<path d="M320.595 400.291C316.311 400.291 312.837 396.818 312.837 392.533V380.121C312.837 375.836 316.31 372.363 320.595 372.363C324.879 372.363 328.353 375.836 328.353 380.121V392.533C328.352 396.818 324.879 400.291 320.595 400.291Z" fill="#25383F"/>
<path d="M256 407.676C247.22 407.676 238.881 403.876 233.121 397.251C230.31 394.018 230.652 389.118 233.885 386.307C237.117 383.497 242.018 383.837 244.829 387.072C250.731 393.859 261.276 393.852 267.171 387.072C269.982 383.838 274.883 383.497 278.115 386.307C281.348 389.118 281.69 394.018 278.879 397.251C273.119 403.876 264.78 407.676 256 407.676Z" fill="#25383F"/>
<path d="M333.576 131.879C337.86 131.879 341.334 128.406 341.334 124.121C341.334 119.836 337.861 116.363 333.576 116.363H183.337C171.175 121.535 171.175 126.706 183.337 131.878L333.576 131.879Z" fill="#DCDBFF"/>
<path d="M155.152 124.121C155.152 128.405 158.625 131.879 162.91 131.879H183.338V116.364H162.91C158.625 116.364 155.152 119.837 155.152 124.121Z" fill="#C7C7F9"/>
<path d="M333.576 162.909H183.337C167.531 168.092 167.464 173.263 183.337 178.424H333.576C337.86 178.424 341.334 174.951 341.334 170.666C341.333 166.382 337.86 162.909 333.576 162.909Z" fill="#DCDBFF"/>
<path d="M162.909 162.909C158.625 162.909 155.151 166.382 155.151 170.667C155.151 174.951 158.624 178.425 162.909 178.425H183.337V162.91H162.909V162.909Z" fill="#C7C7F9"/>
<path d="M333.576 224.97H224.97C220.686 224.97 217.212 221.497 217.212 217.212C217.212 212.928 220.685 209.454 224.97 209.454H333.576C337.86 209.454 341.334 212.927 341.334 217.212C341.333 221.496 337.86 224.97 333.576 224.97Z" fill="#DCDBFF"/>
</g>
<defs>
<clipPath id="clip0_18_14">
<rect width="512" height="512" fill="white"/>
</clipPath>
</defs>
</svg>
