<svg width="512" height="512" viewBox="0 0 512 512" fill="none" xmlns="http://www.w3.org/2000/svg">
<g clip-path="url(#clip0_18_55)">
<path d="M221.63 512H470.793C493.551 512 512 493.551 512 470.793V41.207C512 18.449 493.551 0 470.793 0H194.423L13.209 266.302L221.63 512Z" fill="#ECECF6"/>
<path d="M194.423 0H41.207C18.449 0 0 18.449 0 41.207V470.793C0 493.551 18.449 512 41.207 512H221.63C179.111 428.841 154.527 330.488 154.527 225.095C154.527 144.77 168.807 68.536 194.423 0Z" fill="#E2E2F1"/>
<path d="M165.113 343.41L256 361.724L460.491 320.517V72.113C460.491 60.734 451.266 51.509 439.887 51.509H177.734L72.1689 197.459L165.113 343.41Z" fill="#A4E7FF"/>
<path d="M177.734 51.509H72.113C60.734 51.509 51.509 60.734 51.509 72.113V320.518L165.113 343.41C158.183 305.33 154.527 265.736 154.527 225.095C154.527 164.376 162.687 105.995 177.734 51.509Z" fill="#83DEFF"/>
<path d="M198.381 460.491H439.887C451.266 460.491 460.491 451.266 460.491 439.887V320.517L423.079 259.26C413.265 243.191 390.087 242.741 379.657 258.418L354.813 295.759C346.843 307.737 329.362 308.067 320.947 296.397L229.697 169.852C214.255 143.904 181.701 138.02 158.499 152.201L82.629 353.867L198.381 460.491Z" fill="#60DAA8"/>
<path d="M158.499 152.201C151.695 156.359 145.696 162.243 141.168 169.852L51.509 320.517V439.887C51.509 451.266 60.734 460.491 72.113 460.491H198.381C170.282 389.326 154.527 309.467 154.527 225.095C154.527 200.374 155.88 176.042 158.499 152.201Z" fill="#36D49B"/>
<path d="M381.762 171.791C391.802 166.687 398.68 156.259 398.68 144.225C398.68 127.156 384.843 113.32 367.775 113.32C366.87 113.32 365.974 113.359 365.088 113.436L346.828 123.451L360.907 171.792H381.762V171.791Z" fill="#FFEF64"/>
<path d="M360.564 133.924C360.564 126.45 362.213 119.449 365.088 113.436C349.278 114.798 336.869 128.063 336.869 144.226C336.869 161.295 350.706 175.131 367.774 175.131C372.808 175.131 377.561 173.927 381.761 171.792C369.363 165.938 360.564 151.191 360.564 133.924Z" fill="#FFE54E"/>
<path d="M175.258 418.437C191.712 418.437 205.05 407.815 205.05 394.712C205.05 381.609 191.712 370.987 175.258 370.987C158.804 370.987 145.466 381.609 145.466 394.712C145.466 407.815 158.804 418.437 175.258 418.437Z" fill="white"/>
<path d="M336.742 418.437C353.196 418.437 366.534 407.815 366.534 394.712C366.534 381.609 353.196 370.987 336.742 370.987C320.288 370.987 306.95 381.609 306.95 394.712C306.95 407.815 320.288 418.437 336.742 418.437Z" fill="white"/>
<path d="M206.801 376.621C202.534 376.621 199.075 373.162 199.075 368.895C199.075 365.336 196.18 362.441 192.621 362.441C189.063 362.441 186.167 365.336 186.167 368.895C186.167 373.162 182.708 376.621 178.441 376.621C174.174 376.621 170.715 373.162 170.715 368.895C170.715 356.816 180.542 346.989 192.621 346.989C204.7 346.989 214.528 356.816 214.528 368.895C214.527 373.161 211.068 376.621 206.801 376.621Z" fill="#495560"/>
<path d="M333.56 376.621C329.293 376.621 325.834 373.162 325.834 368.895C325.834 365.336 322.939 362.441 319.38 362.441C315.822 362.441 312.926 365.336 312.926 368.895C312.926 373.162 309.467 376.621 305.2 376.621C300.933 376.621 297.474 373.162 297.474 368.895C297.474 356.816 307.301 346.989 319.38 346.989C331.459 346.989 341.287 356.816 341.287 368.895C341.286 373.161 337.827 376.621 333.56 376.621Z" fill="#495560"/>
<path d="M256 400.048C248.002 400.048 240.396 396.584 235.133 390.545C232.33 387.328 232.665 382.447 235.881 379.644C239.098 376.841 243.978 377.175 246.782 380.392C249.109 383.063 252.469 384.595 255.999 384.595C259.529 384.595 262.889 383.063 265.216 380.392C268.02 377.175 272.9 376.84 276.117 379.644C279.334 382.448 279.669 387.329 276.865 390.545C271.604 396.584 263.998 400.048 256 400.048Z" fill="#495560"/>
</g>
<defs>
<clipPath id="clip0_18_55">
<rect width="512" height="512" fill="white"/>
</clipPath>
</defs>
</svg>
