<svg width="512" height="512" viewBox="0 0 512 512" fill="none" xmlns="http://www.w3.org/2000/svg">
<g clip-path="url(#clip0_18_81)">
<path d="M367.26 171.2L256 114.203H255.999L52.0242 213.683V384.539C52.0242 410.142 72.7792 430.897 98.3823 430.897H154.012H413.618C439.221 430.897 459.976 410.142 459.976 384.539C459.976 381.894 459.976 220.254 459.976 217.604L367.26 171.2Z" fill="#EFEDFF"/>
<path d="M255.999 156.233V114.203L52.0242 213.683V384.539C52.0242 410.142 72.7792 430.897 98.3823 430.897H154.012V353.633C154.012 275.438 191.762 205.661 255.999 156.233Z" fill="#D4D4FF"/>
<path d="M492.383 195.107L271.863 84.8477L226.124 109.572L255.999 156.233L460.655 258.562C478.178 267.325 499.485 260.222 508.247 242.699C517.009 225.175 509.906 203.869 492.383 195.107Z" fill="#FF8E9E"/>
<path d="M271.863 84.8477C266.87 82.3516 261.527 81.103 255.999 81.103C250.564 81.103 245.129 82.3516 240.135 84.8477L19.6168 195.107C2.09338 203.869 -5.00869 225.176 3.753 242.699C12.5147 260.221 33.8219 267.325 51.3453 258.562L256 156.233V125.367C255.999 110.346 261.664 95.8779 271.863 84.8477Z" fill="#EA5B70"/>
<path d="M98.3823 430.896H133.408L154.012 392.264L133.408 353.632H52.0242V384.538C52.0242 410.141 72.7792 430.896 98.3823 430.896Z" fill="#EA5B70"/>
<path d="M133.408 353.632V430.896H256L276.604 392.264L256 353.632H133.408Z" fill="#FCE3A0"/>
<path d="M133.408 353.632H154.012V430.896H133.408V353.632Z" fill="#FFCE71"/>
<path d="M256 430.896H378.592L399.195 392.264L378.592 353.632H256V430.896Z" fill="#88C5FD"/>
<path d="M378.592 430.896H413.618C439.221 430.896 459.976 410.141 459.976 384.538C459.976 382.889 459.976 371.27 459.976 353.632H378.592V430.896Z" fill="#C9AAF2"/>
<path d="M429.07 353.632V304.581C429.07 296.047 422.152 289.128 413.618 289.128H98.3823C89.8483 289.128 82.9296 296.047 82.9296 304.581V353.632C82.9296 362.166 89.8483 369.085 98.3823 369.085H413.618C422.152 369.085 429.07 362.166 429.07 353.632Z" fill="#7CE3FF"/>
<path d="M98.3823 289.127C89.8483 289.127 82.9296 296.046 82.9296 304.58V353.631C82.9296 362.165 89.8483 369.084 98.3823 369.084H154.012V353.631C154.012 331.354 157.087 309.763 162.955 289.127H98.3823Z" fill="#55DAFE"/>
<path d="M162.338 345.823C165.319 342.864 165.405 337.949 162.338 334.903C159.326 331.869 154.412 331.889 151.418 334.903L117.235 369.084H139.08L162.338 345.823Z" fill="#B9F0FF"/>
<path d="M106.832 338.983C106.832 343.256 110.283 346.709 114.558 346.709C118.778 346.709 122.274 343.295 122.274 338.983C122.274 334.709 118.823 331.257 114.548 331.257C110.285 331.257 106.832 334.71 106.832 338.983Z" fill="#B9F0FF"/>
<path d="M178.739 326.24C183.006 326.24 186.465 322.781 186.465 318.513C186.465 314.246 183.006 310.787 178.739 310.787C174.471 310.787 171.012 314.246 171.012 318.513C171.012 322.781 174.471 326.24 178.739 326.24Z" fill="#B9F0FF"/>
<path d="M130.938 311.663C127.941 314.682 127.914 319.548 130.938 322.593C133.955 325.609 138.834 325.627 141.868 322.593L175.334 289.127H153.475L130.938 311.663Z" fill="#B9F0FF"/>
<path d="M381.767 334.903C378.754 331.869 373.84 331.889 370.847 334.903L336.663 369.084H358.508L381.767 345.822C384.748 342.864 384.833 337.949 381.767 334.903Z" fill="#B9F0FF"/>
<path d="M341.703 338.983C341.703 334.709 338.252 331.257 333.977 331.257C329.713 331.257 326.26 334.71 326.26 338.983C326.26 343.256 329.712 346.709 333.987 346.709C338.208 346.709 341.703 343.295 341.703 338.983Z" fill="#B9F0FF"/>
<path d="M398.167 326.24C402.434 326.24 405.894 322.781 405.894 318.513C405.894 314.246 402.434 310.787 398.167 310.787C393.9 310.787 390.441 314.246 390.441 318.513C390.441 322.781 393.9 326.24 398.167 326.24Z" fill="#B9F0FF"/>
<path d="M350.367 311.663C347.37 314.682 347.343 319.548 350.367 322.593C353.384 325.609 358.263 325.627 361.297 322.593L394.762 289.127H372.904L350.367 311.663Z" fill="#B9F0FF"/>
<path d="M276.576 274.617C253.979 267.653 228.496 272.368 209.642 289.128V430.895H250.849H302.358V289.128C294.699 282.32 285.88 277.485 276.576 274.617Z" fill="#D6948C"/>
<path d="M276.576 274.617C253.979 267.653 228.496 272.368 209.642 289.128V430.895H250.849V309.749C250.849 293.789 261.071 279.478 276.299 274.705C276.391 274.675 276.484 274.646 276.576 274.617Z" fill="#CE857A"/>
<path d="M178.528 231.46C164.305 231.46 152.774 240.642 152.774 251.97C152.774 263.297 164.305 272.479 178.528 272.479C192.752 272.479 204.283 263.297 204.283 251.97C204.283 240.642 192.752 231.46 178.528 231.46Z" fill="#FFB5C0"/>
<path d="M333.472 231.46C319.248 231.46 307.717 240.642 307.717 251.97C307.717 263.297 319.248 272.479 333.472 272.479C347.695 272.479 359.226 263.297 359.226 251.97C359.226 240.642 347.695 231.46 333.472 231.46Z" fill="#FFB5C0"/>
<path d="M191.666 214.879C187.398 214.879 183.94 218.337 183.94 222.606V234.968C183.94 239.236 187.398 242.694 191.666 242.694C195.934 242.694 199.393 239.236 199.393 234.968V222.606C199.393 218.337 195.933 214.879 191.666 214.879Z" fill="#313D40"/>
<path d="M320.333 214.879C316.065 214.879 312.606 218.337 312.606 222.606V234.968C312.606 239.236 316.065 242.694 320.333 242.694C324.601 242.694 328.059 239.236 328.059 234.968V222.606C328.059 218.337 324.601 214.879 320.333 214.879Z" fill="#313D40"/>
<path d="M278.037 228.774C274.82 225.97 269.938 226.305 267.136 229.524C261.237 236.291 250.758 236.285 244.865 229.524C242.062 226.306 237.181 225.972 233.964 228.774C230.747 231.577 230.411 236.458 233.214 239.675C245.27 253.511 266.742 253.499 278.786 239.675C281.59 236.458 281.254 231.577 278.037 228.774Z" fill="#313D40"/>
</g>
<defs>
<clipPath id="clip0_18_81">
<rect width="512" height="512" fill="white"/>
</clipPath>
</defs>
</svg>
