<svg width="512" height="512" viewBox="0 0 512 512" fill="none" xmlns="http://www.w3.org/2000/svg">
<g clip-path="url(#clip0_18_117)">
<path d="M256 512C397.385 512 512 397.385 512 256C512 114.615 397.385 0 256 0C114.615 0 0 114.615 0 256C0 397.385 114.615 512 256 512Z" fill="#50E2CE"/>
<path d="M256 460.491C368.937 460.491 460.491 368.937 460.491 256C460.491 143.063 368.937 51.509 256 51.509C143.063 51.509 51.509 143.063 51.509 256C51.509 368.937 143.063 460.491 256 460.491Z" fill="#4487DA"/>
<path d="M82.4145 256C82.4145 148.442 165.887 60.0142 271.453 52.089C266.351 51.7058 261.198 51.509 256 51.509C143.244 51.509 51.509 143.244 51.509 256C51.509 368.755 143.244 460.49 256 460.49C261.198 460.49 266.351 460.292 271.453 459.91C165.887 451.985 82.4145 363.558 82.4145 256Z" fill="#006AD0"/>
<path d="M361.332 243.123H150.668C143.161 243.123 137.076 249.208 137.076 256.715V275.888C137.076 283.395 143.161 289.481 150.668 289.481H361.331C368.838 289.481 374.923 283.395 374.923 275.888V256.715C374.923 249.208 368.838 243.123 361.332 243.123Z" fill="white"/>
<path d="M361.332 156.226H150.668C143.161 156.226 137.076 162.311 137.076 169.818V188.992C137.076 196.499 143.161 202.584 150.668 202.584H361.331C368.838 202.584 374.923 196.499 374.923 188.992V169.818C374.923 162.311 368.838 156.226 361.332 156.226Z" fill="white"/>
<path d="M361.332 376.379H150.668C143.161 376.379 137.076 370.293 137.076 362.786V343.613C137.076 336.106 143.161 330.021 150.668 330.021H361.331C368.838 330.021 374.923 336.106 374.923 343.613V362.786C374.923 370.293 368.838 376.379 361.332 376.379Z" fill="white"/>
<path d="M182.814 121.243C178.547 121.243 175.088 117.784 175.088 113.517V99.4527C175.088 95.1857 178.547 91.7263 182.814 91.7263C187.081 91.7263 190.54 95.1857 190.54 99.4527V113.516C190.54 117.784 187.081 121.243 182.814 121.243Z" fill="#423E4F"/>
<path d="M329.186 121.243C324.918 121.243 321.46 117.784 321.46 113.517V99.4527C321.46 95.1857 324.918 91.7263 329.186 91.7263C333.454 91.7263 336.912 95.1857 336.912 99.4527V113.516C336.912 117.784 333.453 121.243 329.186 121.243Z" fill="#423E4F"/>
<path d="M256 129.614C246.371 129.614 237.217 125.444 230.88 118.174C228.076 114.957 228.412 110.077 231.629 107.273C234.848 104.471 239.725 104.804 242.53 108.022C245.931 111.924 250.84 114.162 256 114.162C261.16 114.162 266.069 111.924 269.47 108.022C272.273 104.804 277.152 104.47 280.371 107.273C283.587 110.076 283.923 114.957 281.12 118.174C274.783 125.444 265.629 129.614 256 129.614Z" fill="#423E4F"/>
</g>
<defs>
<clipPath id="clip0_18_117">
<rect width="512" height="512" fill="white"/>
</clipPath>
</defs>
</svg>
