<svg width="683" height="683" viewBox="0 0 683 683" fill="none" xmlns="http://www.w3.org/2000/svg">
<g clip-path="url(#clip0_18_128)">
<mask id="mask0_18_128" style="mask-type:luminance" maskUnits="userSpaceOnUse" x="0" y="0" width="683" height="683">
<path d="M0 0.00012207H682.667V682.667H0V0.00012207Z" fill="white"/>
</mask>
<g mask="url(#mask0_18_128)">
<path d="M656.55 75.8336L672.37 60.0136C686.099 46.2843 686.099 24.0256 672.37 10.2963C658.641 -3.4317 636.382 -3.4317 622.653 10.2963L606.833 26.1163C582.967 49.983 546.117 55.0056 516.734 38.3976C487.351 21.7896 450.501 26.8136 426.634 50.679L415.899 61.415L621.251 266.768L631.987 256.032C655.853 232.167 660.877 195.315 644.269 165.934C627.661 136.552 632.685 99.699 656.55 75.8336Z" fill="#FFF2B4"/>
<path d="M530.158 113.366C547.363 96.1605 575.259 96.1605 592.466 113.366L643.379 164.279C627.87 135.178 633.129 99.2552 656.55 75.8338L672.37 60.0138C686.099 46.2845 686.099 24.0258 672.37 10.2965C658.641 -3.43152 636.382 -3.43285 622.653 10.2965L606.833 26.1165C582.967 49.9818 546.117 55.0058 516.734 38.3978C487.351 21.7898 450.501 26.8138 426.634 50.6792L415.899 61.4152L530.158 175.674C512.953 158.467 512.953 130.571 530.158 113.366Z" fill="#FFDF8E"/>
<path d="M545.547 331.665L351.002 137.119C327.126 113.243 327.126 74.5314 351.002 50.6554C374.879 26.7781 413.59 26.7781 437.466 50.6554L632.011 245.201C655.888 269.077 655.888 307.789 632.011 331.665C608.135 355.541 569.423 355.541 545.547 331.665Z" fill="#B0D8FD"/>
<path d="M428.703 128.356C452.579 104.48 491.291 104.48 515.167 128.356L437.467 50.655C413.59 26.779 374.879 26.779 351.002 50.655C327.126 74.5323 327.126 113.243 351.002 137.12L428.703 214.82C404.827 190.944 404.827 152.232 428.703 128.356Z" fill="#9CCEFD"/>
<path d="M577.052 431.397C585.993 422.456 590.682 411.905 592.865 401.516C597.72 378.409 589.941 354.443 573.246 337.748L344.92 109.421C328.224 92.7254 304.258 84.9468 281.15 89.8015C270.761 91.9854 260.212 96.6734 251.269 105.615C221.464 135.421 203.801 182.889 149.158 237.532C94.5144 292.176 47.0464 309.839 17.2397 339.644C8.29836 348.585 3.60905 359.136 1.42638 369.525C-3.42829 392.633 4.35038 416.599 21.0464 433.295L249.373 661.621C266.068 678.316 290.034 686.095 313.141 681.24C323.53 679.057 334.081 674.368 343.022 665.427C372.828 635.621 390.49 588.153 445.134 533.509C499.778 478.865 547.246 461.203 577.052 431.397Z" fill="#F7F0EB"/>
<path d="M79.128 447.227C81.3107 436.838 86 426.287 94.9414 417.346C124.747 387.54 172.215 369.878 226.859 315.234C281.503 260.59 299.165 213.122 328.971 183.316C337.912 174.375 348.463 169.686 358.852 167.503C381.959 162.648 405.924 170.426 422.62 187.122L344.919 109.42C328.224 92.7256 304.257 84.9469 281.151 89.8016C270.761 91.9843 260.211 96.6736 251.269 105.615C221.464 135.42 203.801 182.89 149.157 237.532C94.5134 292.176 47.0454 309.839 17.24 339.644C8.2987 348.586 3.60936 359.136 1.4267 369.526C-3.42797 392.632 4.3507 416.599 21.0454 433.294L98.7467 510.995C82.0507 494.299 74.2734 470.334 79.128 447.227Z" fill="#EFE2DD"/>
<path d="M239.313 340.922C226.141 354.094 202.055 351.363 185.515 334.823C168.977 318.283 166.246 294.198 179.417 281.026C192.589 267.855 216.674 270.586 233.214 287.124C249.754 303.664 252.485 327.75 239.313 340.922Z" fill="#FDA0C1"/>
<path d="M341.745 443.354C328.573 456.526 331.304 480.611 347.844 497.151C364.384 513.69 388.469 516.421 401.641 503.25C414.812 490.078 412.081 465.993 395.542 449.453C379.002 432.913 354.917 430.182 341.745 443.354Z" fill="#FDA0C1"/>
<path d="M261.725 293.521L250.071 305.176" stroke="#6E6E6E" stroke-width="20" stroke-miterlimit="10" stroke-linecap="round" stroke-linejoin="round"/>
<path d="M297.054 352.018C296.452 360.789 299.494 369.762 306.198 376.468C312.904 383.172 321.877 386.214 330.648 385.612" stroke="#6E6E6E" stroke-width="20" stroke-miterlimit="10" stroke-linecap="round" stroke-linejoin="round"/>
<path d="M366.559 421.015C374.019 413.555 386.112 413.555 393.572 421.015C401.032 428.475 401.032 440.568 393.572 448.028" stroke="#6E6E6E" stroke-width="20" stroke-miterlimit="10" stroke-linecap="round" stroke-linejoin="round"/>
</g>
</g>
<defs>
<clipPath id="clip0_18_128">
<rect width="682.667" height="682.667" fill="white"/>
</clipPath>
</defs>
</svg>
