<svg width="513" height="512" viewBox="0 0 513 512" fill="none" xmlns="http://www.w3.org/2000/svg">
<g clip-path="url(#clip0_18_157)">
<path d="M402.337 66.026L380.788 62.061C380.788 27.782 353.006 0 318.728 0H230.281C125.299 23.617 58.7627 467.696 191.896 512H442.849C399.993 40.22 402.433 67.085 402.337 66.026Z" fill="#F0F0F9"/>
<path d="M230.281 0H62.7277C28.4487 0 0.666687 27.782 0.666687 62.061V449.94C0.666687 484.218 28.4487 512 62.7277 512H191.896C152.783 361.383 168.796 150.047 230.281 0Z" fill="#D7D7F9"/>
<path d="M512.667 160.323V446.06C512.667 482.48 483.147 512 446.728 512C410.333 512 380.789 482.499 380.789 446.061V62.061H402.769C414.198 62.061 423.456 71.318 423.456 82.748V100.849L470.001 139.637H491.981C503.41 139.636 512.667 148.894 512.667 160.323Z" fill="#D7D7F9"/>
<path d="M342 356.848V380.121C342 388.685 335.049 395.636 326.485 395.636H210.122C201.558 395.636 194.607 388.685 194.607 380.121V356.848C194.607 348.284 201.558 341.333 210.122 341.333H326.486C335.05 341.333 342 348.284 342 356.848Z" fill="#88CF71"/>
<path d="M148.061 279.273V380.121C148.061 388.685 141.11 395.636 132.546 395.636H54.9697C46.4057 395.636 39.4547 388.685 39.4547 380.121V279.273C39.4547 270.709 46.4057 263.758 54.9697 263.758H132.546C141.11 263.758 148.061 270.708 148.061 279.273Z" fill="#02C6F9"/>
<path d="M310.97 38.7881H215.849C167.196 44.7351 144.182 156.445 184.839 162.909H310.97C328.109 162.909 342 149.018 342 131.879V69.8181C342 52.6791 328.109 38.7881 310.97 38.7881Z" fill="#F97A6E"/>
<path d="M70.4847 38.7881C53.3457 38.7881 39.4547 52.6791 39.4547 69.8181V131.879C39.4547 149.018 53.3457 162.909 70.4847 162.909H184.839C192.323 119.67 202.708 77.7101 215.849 38.7881H70.4847Z" fill="#F85C5C"/>
<path d="M470 449.939C470 462.796 459.584 473.212 446.727 473.212C433.964 473.212 423.454 462.883 423.454 449.939V100.848H449.313C460.743 100.848 470 110.105 470 121.535V449.939Z" fill="#B6C4F9"/>
<path d="M117.031 69.8179C112.747 69.8179 109.273 73.2909 109.273 77.5759V98.4999L92.4547 73.2729C90.5587 70.4279 87.0247 69.1619 83.7527 70.1509C80.4807 71.1419 78.2427 74.1569 78.2427 77.5759V124.121C78.2427 128.405 81.7157 131.879 86.0007 131.879C90.2857 131.879 93.7587 128.406 93.7587 124.121V103.197L110.577 128.424C112.043 130.622 114.487 131.879 117.032 131.879C121.295 131.879 124.789 128.422 124.789 124.121V77.5759C124.788 73.2909 121.315 69.8179 117.031 69.8179Z" fill="#FAE380"/>
<path d="M163.576 85.3329C167.86 85.3329 171.334 81.8599 171.334 77.5749C171.334 73.2899 167.861 69.8169 163.576 69.8169H148.061C143.777 69.8169 140.303 73.2899 140.303 77.5749V124.12C140.303 128.404 143.776 131.878 148.061 131.878H163.576C167.86 131.878 171.334 128.405 171.334 124.12C171.334 119.836 167.861 116.362 163.576 116.362H155.818V108.604H163.576C167.86 108.604 171.334 105.131 171.334 100.846C171.334 96.5619 167.861 93.0879 163.576 93.0879H155.818V85.3299H163.576V85.3329Z" fill="#FAE380"/>
<path d="M241.152 69.8179C236.868 69.8179 233.394 73.2909 233.394 77.5759V105.393L223.364 95.3629C220.335 92.3339 215.423 92.3339 212.393 95.3629L202.363 105.393V77.5759C202.363 73.2919 198.89 69.8179 194.605 69.8179C190.321 69.8179 186.847 73.2909 186.847 77.5759V124.121C186.847 127.259 188.737 130.087 191.636 131.288C194.534 132.489 197.872 131.826 200.09 129.606L217.877 111.819L235.667 129.607C237.898 131.839 241.239 132.483 244.121 131.289C247.02 130.088 248.91 127.26 248.91 124.122V77.5759C248.909 73.2909 245.436 69.8179 241.152 69.8179Z" fill="#FAE380"/>
<path d="M301.729 105.122C298.712 97.8129 291.682 93.0909 283.818 93.0909C281.679 93.0909 279.939 91.3509 279.939 89.2119C279.939 87.0729 281.679 85.3329 283.818 85.3329H295.454C299.738 85.3329 303.212 81.8599 303.212 77.5749C303.212 73.2899 299.739 69.8169 295.454 69.8169H283.818C273.124 69.8169 264.424 78.5169 264.424 89.2109C264.424 99.9049 273.124 108.605 283.818 108.605C286.132 108.605 287.085 110.309 287.387 111.041C287.754 111.928 288.134 113.65 286.543 115.234C285.819 115.961 284.852 116.362 283.818 116.362H272.182C267.898 116.362 264.424 119.835 264.424 124.12C264.424 128.404 267.897 131.878 272.182 131.878H283.818C289.009 131.878 293.883 129.854 297.513 126.206C303.162 120.586 304.778 112.507 301.729 105.122Z" fill="#FAE380"/>
<path d="M126.133 221.867C121.849 221.867 118.375 218.394 118.375 214.109V201.697C118.375 197.413 121.848 193.939 126.133 193.939C130.417 193.939 133.891 197.412 133.891 201.697V214.109C133.89 218.393 130.417 221.867 126.133 221.867Z" fill="#2F444E"/>
<path d="M255.323 221.867C251.039 221.867 247.565 218.394 247.565 214.109V201.697C247.565 197.413 251.038 193.939 255.323 193.939C259.607 193.939 263.081 197.412 263.081 201.697V214.109C263.08 218.393 259.607 221.867 255.323 221.867Z" fill="#2F444E"/>
<path d="M190.728 229.252C181.949 229.252 173.609 225.453 167.848 218.827C165.037 215.594 165.379 210.694 168.612 207.883C171.845 205.072 176.744 205.413 179.556 208.647C185.458 215.435 196.002 215.428 201.898 208.647C204.71 205.414 209.61 205.072 212.842 207.883C216.075 210.695 216.417 215.594 213.606 218.827C207.846 225.453 199.507 229.252 190.728 229.252Z" fill="#2F444E"/>
<path d="M334.243 271.515H194.606C190.322 271.515 186.848 268.042 186.848 263.757C186.848 259.472 190.321 255.999 194.606 255.999H334.242C338.526 255.999 342 259.472 342 263.757C342 268.042 338.527 271.515 334.243 271.515Z" fill="#D7D7F9"/>
<path d="M334.243 310.303H194.606C190.322 310.303 186.848 306.83 186.848 302.545C186.848 298.26 190.321 294.787 194.606 294.787H334.242C338.526 294.787 342 298.26 342 302.545C342 306.83 338.527 310.303 334.243 310.303Z" fill="#D7D7F9"/>
<path d="M334.243 426.667H176.226C165.553 431.877 166.303 437.05 178.222 442.182H334.243C338.527 442.182 342.001 438.709 342.001 434.424C342 430.139 338.527 426.667 334.243 426.667Z" fill="#D7D7F9"/>
<path d="M47.2117 426.667C42.9277 426.667 39.4537 430.14 39.4537 434.425C39.4537 438.71 42.9267 442.183 47.2117 442.183H178.221C177.504 437.051 176.839 431.878 176.225 426.668H47.2117V426.667Z" fill="#B6C4F9"/>
<path d="M225.637 480.97C229.921 480.97 233.395 477.497 233.395 473.212C233.395 468.927 229.922 465.454 225.637 465.454H181.876C168.855 470.68 169.972 475.853 184.788 480.969H225.637V480.97Z" fill="#D7D7F9"/>
<path d="M39.4547 473.212C39.4547 477.497 42.9277 480.97 47.2127 480.97H184.789C183.761 475.852 182.791 470.679 181.877 465.455H47.2117C42.9277 465.455 39.4547 468.927 39.4547 473.212Z" fill="#B6C4F9"/>
</g>
<defs>
<clipPath id="clip0_18_157">
<rect width="512" height="512" fill="white" transform="translate(0.666687)"/>
</clipPath>
</defs>
</svg>
