<svg width="684" height="683" viewBox="0 0 684 683" fill="none" xmlns="http://www.w3.org/2000/svg">
<g clip-path="url(#clip0_18_182)">
<path d="M319.807 478.123L208.855 517.576C179.746 527.93 149.313 505.821 150.162 474.93L153.397 357.222C153.678 347.108 150.459 337.212 144.293 329.197L72.4855 235.869C53.6418 211.379 65.2668 175.603 94.9021 166.864L207.855 133.572C217.558 130.708 225.974 124.593 231.693 116.249L298.266 19.1144C315.735 -6.36985 353.349 -6.36985 370.818 19.1144L437.385 116.249C443.104 124.593 451.526 130.708 461.229 133.572L574.176 166.864C603.817 175.603 615.442 211.379 596.598 235.869L524.791 329.197C518.624 337.212 515.406 347.108 515.682 357.222L518.921 474.93C519.77 505.821 489.338 527.93 460.224 517.576L349.276 478.123C339.745 474.738 329.339 474.738 319.807 478.123Z" fill="#F6E06A"/>
<path d="M208.855 517.576L319.807 478.123C329.339 474.738 339.745 474.738 349.276 478.123L460.229 517.576C481.802 525.248 504.083 515.086 513.838 496.748C340.417 464.394 256.433 240.874 243.058 99.6714L231.693 116.249C225.974 124.593 217.558 130.713 207.855 133.572L94.9021 166.869C65.2668 175.603 53.6418 211.379 72.4855 235.869L144.293 329.197C150.459 337.212 153.678 347.113 153.397 357.222L150.162 474.936C149.313 505.821 179.746 527.93 208.855 517.576Z" fill="#F2D068"/>
<path d="M606.723 418.524L564.739 376.535C555.676 367.478 543.244 362.618 530.442 363.134L503.026 364.238C482.208 365.077 462.463 373.728 447.734 388.462L312.396 523.795C296.662 539.529 296.662 565.039 312.396 580.768L402.489 670.867C418.224 686.601 443.729 686.601 459.463 670.867L594.801 535.529C609.536 520.795 618.181 501.055 619.02 480.238L620.129 452.821C620.645 440.019 615.786 427.582 606.723 418.524Z" fill="#F8EED1"/>
<path d="M417.724 418.467L312.396 523.795C296.662 539.529 296.662 565.039 312.396 580.769L402.489 670.867C418.224 686.601 443.729 686.601 459.463 670.867L503.213 627.122C444.015 579.852 419.182 482.592 417.724 418.467Z" fill="#E8D9B3"/>
<path d="M530.442 363.134L503.025 364.238C482.208 365.077 462.463 373.728 447.734 388.462L446.859 389.332C466.713 422.332 492.578 452.66 511.593 471.67C530.603 490.68 560.931 516.55 593.931 536.399L594.801 535.529C609.535 520.795 618.181 501.055 619.02 480.232L620.129 452.821C620.645 440.019 615.785 427.582 606.728 418.524L564.739 376.535C555.676 367.472 543.244 362.613 530.442 363.134Z" fill="#EB8D9A"/>
<path d="M432.604 522.368C424.791 522.368 416.974 519.394 411.026 513.446C399.125 501.545 399.125 482.186 411.026 470.285C416.786 464.519 424.453 461.347 432.604 461.347C440.755 461.347 448.422 464.519 454.187 470.285C459.948 476.05 463.125 483.712 463.125 491.863C463.125 500.019 459.948 507.68 454.182 513.446C448.234 519.394 440.416 522.368 432.604 522.368ZM432.604 481.347C429.797 481.347 427.156 482.441 425.166 484.425C421.062 488.529 421.062 495.201 425.166 499.3C429.271 503.404 435.942 503.404 440.041 499.3C442.031 497.316 443.125 494.675 443.125 491.863C443.125 489.055 442.031 486.415 440.041 484.425C438.057 482.441 435.416 481.347 432.604 481.347Z" fill="#495059"/>
<path d="M432.672 639.883C424.854 639.883 417.041 636.914 411.088 630.961C399.193 619.065 399.193 599.701 411.088 587.8C422.989 575.904 442.349 575.904 454.25 587.8C466.151 599.701 466.151 619.06 454.25 630.961C448.302 636.914 440.484 639.883 432.672 639.883ZM425.234 601.946C421.13 606.044 421.13 612.716 425.234 616.82C429.333 620.919 436.01 620.919 440.109 616.82C444.213 612.716 444.213 606.044 440.109 601.946C436.005 597.841 429.333 597.841 425.234 601.946Z" fill="#495059"/>
<path d="M509.447 560.623H355.828C350.307 560.623 345.828 556.144 345.828 550.623C345.828 545.102 350.307 540.623 355.828 540.623H509.447C514.968 540.623 519.447 545.102 519.447 550.623C519.447 556.144 514.968 560.623 509.447 560.623Z" fill="#495059"/>
<path d="M558.369 434.889C555.812 434.889 553.249 433.915 551.301 431.962C547.395 428.056 547.395 421.722 551.301 417.821C578.681 390.441 594.707 363.702 598.936 338.353C603.655 310.051 593.254 282.91 568.02 257.676C564.114 253.77 564.114 247.436 568.02 243.53C571.926 239.629 578.254 239.629 582.161 243.53C612.223 273.598 624.504 306.608 618.66 341.639C613.733 371.186 595.827 401.577 565.442 431.962C563.489 433.915 560.931 434.889 558.369 434.889Z" fill="#495059"/>
<path d="M258.672 272.796C258.672 253.28 238.808 237.463 214.303 237.463C189.803 237.463 169.938 253.28 169.938 272.796C169.938 292.306 189.803 308.124 214.303 308.124C238.808 308.124 258.672 292.306 258.672 272.796Z" fill="#EB8D9A"/>
<path d="M499.145 272.796C499.145 253.28 479.281 237.463 454.781 237.463C430.276 237.463 410.411 253.28 410.411 272.796C410.411 292.306 430.276 308.124 454.781 308.124C479.281 308.124 499.145 292.306 499.145 272.796Z" fill="#EB8D9A"/>
<path d="M221.719 241.077C216.199 241.077 211.719 236.603 211.719 231.077V212.036C211.719 206.515 216.199 202.036 221.719 202.036C227.245 202.036 231.719 206.515 231.719 212.036V231.077C231.719 236.603 227.245 241.077 221.719 241.077Z" fill="#495059"/>
<path d="M334.542 277.791C316.792 277.791 302.401 263.4 302.401 245.65V222.28C302.401 217.437 306.328 213.504 311.172 213.504H357.911C362.755 213.504 366.687 217.431 366.687 222.28V245.65C366.682 263.4 352.292 277.791 334.542 277.791Z" fill="#495059"/>
<path d="M447.359 241.077C441.838 241.077 437.359 236.603 437.359 231.077V212.036C437.359 206.515 441.838 202.036 447.359 202.036C452.885 202.036 457.359 206.515 457.359 212.036V231.077C457.359 236.603 452.885 241.077 447.359 241.077Z" fill="#495059"/>
<path d="M441.604 80.01C448.333 102.526 448.333 126.614 441.604 149.124C439.484 156.228 446.01 162.754 453.109 160.635C475.625 153.906 499.713 153.906 522.229 160.635C529.327 162.754 535.854 156.223 533.734 149.124C527.005 126.614 527.005 102.526 533.734 80.01C535.854 72.9111 529.327 66.3798 522.229 68.5048C499.713 75.2288 475.625 75.2288 453.109 68.5048C446.01 66.3798 439.484 72.9111 441.604 80.01Z" fill="#F5BE6A"/>
<path d="M68.6157 480.128C90.9437 492.186 109.334 510.576 121.386 532.904C125.188 539.941 135.157 539.941 138.959 532.904C151.011 510.576 169.407 492.186 191.73 480.128C198.771 476.326 198.771 466.358 191.73 462.561C169.407 450.503 151.011 432.113 138.959 409.785C135.157 402.748 125.188 402.748 121.386 409.785C109.334 432.113 90.9437 450.503 68.6157 462.561C61.5741 466.358 61.5741 476.331 68.6157 480.128Z" fill="#80BBE6"/>
</g>
<defs>
<clipPath id="clip0_18_182">
<rect width="682.667" height="682.667" fill="white" transform="translate(0.666748)"/>
</clipPath>
</defs>
</svg>
