<svg width="513" height="512" viewBox="0 0 513 512" fill="none" xmlns="http://www.w3.org/2000/svg">
<g clip-path="url(#clip0_18_200)">
<path d="M256.333 512C397.718 512 512.333 397.385 512.333 256C512.333 114.615 397.718 0 256.333 0C114.949 0 0.333496 114.615 0.333496 256C0.333496 397.385 114.949 512 256.333 512Z" fill="#50E2CE"/>
<path d="M41.5407 256C41.5407 121.552 145.188 11.3207 276.937 0.827235C270.14 0.28536 263.27 0 256.333 0C114.948 0 0.333496 114.615 0.333496 256C0.333496 397.385 114.948 512 256.333 512C263.27 512 270.14 511.715 276.937 511.173C145.188 500.679 41.5407 390.448 41.5407 256Z" fill="#00AE8E"/>
<path d="M429.944 225.143L415.848 204.628C408.463 193.88 393.765 191.154 383.017 198.538L203.629 321.796L153.872 272.037C144.652 262.817 129.702 262.817 120.481 272.037L102.88 289.638C93.6597 298.859 93.6597 313.809 102.88 323.029L173.84 393.989C180.814 400.963 190.045 404.55 199.347 404.55C206.434 404.55 213.56 402.466 219.755 398.21L423.855 257.973C434.602 250.588 437.328 235.89 429.944 225.143Z" fill="white"/>
<path d="M143.607 172.021C166.578 172.021 185.201 157.191 185.201 138.897C185.201 120.604 166.578 105.774 143.607 105.774C120.636 105.774 102.013 120.604 102.013 138.897C102.013 157.191 120.636 172.021 143.607 172.021Z" fill="#FF97C1"/>
<path d="M369.06 172.021C392.032 172.021 410.654 157.191 410.654 138.897C410.654 120.604 392.032 105.774 369.06 105.774C346.089 105.774 327.467 120.604 327.467 138.897C327.467 157.191 346.089 172.021 369.06 172.021Z" fill="#FF97C1"/>
<path d="M167.848 114.33C163.58 114.33 160.122 110.871 160.122 106.604V90.4168C160.122 86.1498 163.58 82.6904 167.848 82.6904C172.116 82.6904 175.575 86.1498 175.575 90.4168V106.604C175.575 110.872 172.116 114.33 167.848 114.33Z" fill="#423E4F"/>
<path d="M256.334 124.86C245.16 124.86 234.535 120.02 227.179 111.582C224.376 108.365 224.711 103.485 227.928 100.681C231.145 97.8774 236.025 98.2112 238.83 101.428C243.248 106.499 249.628 109.406 256.334 109.406C263.04 109.406 269.42 106.498 273.837 101.428C276.64 98.2112 281.52 97.8764 284.739 100.68C287.955 103.483 288.291 108.364 285.488 111.581C278.134 120.02 267.508 124.86 256.334 124.86Z" fill="#423E4F"/>
<path d="M366.703 113.879C362.435 113.879 358.977 110.42 358.977 106.153C358.977 100.07 354.028 95.1207 347.944 95.1207C341.861 95.1207 336.911 100.07 336.911 106.153C336.911 110.42 333.453 113.879 329.185 113.879C324.917 113.879 321.458 110.42 321.458 106.153C321.458 91.549 333.34 79.668 347.944 79.668C362.548 79.668 374.429 91.549 374.429 106.153C374.429 110.42 370.97 113.879 366.703 113.879Z" fill="#423E4F"/>
</g>
<defs>
<clipPath id="clip0_18_200">
<rect width="512" height="512" fill="white" transform="translate(0.333496)"/>
</clipPath>
</defs>
</svg>
