<svg width="513" height="512" viewBox="0 0 513 512" fill="none" xmlns="http://www.w3.org/2000/svg">
<g clip-path="url(#clip0_18_210)">
<path d="M264.773 335.724C257.445 328.425 177.045 248.337 176.928 248.22C128.436 233.345 73.0517 243.916 36.1563 280.719C-17.9906 334.721 -7.67839 411.975 46.4685 465.987C100.615 519.989 178.086 530.281 232.233 476.279C268.927 439.676 279.854 384.441 264.773 335.724ZM197.5 441.691C162.519 476.579 115.55 466.856 80.5795 431.968C45.5986 397.08 35.8553 350.246 70.8362 315.358C105.782 280.495 162.53 280.483 197.5 315.358C232.534 350.3 232.386 406.898 197.5 441.691Z" fill="#FFF4AC"/>
<path d="M264.773 335.724C257.445 328.425 177.032 248.325 176.928 248.22L143.701 242.093C136.282 256.708 134.707 273.606 139.165 289.346C184.695 291.87 220.997 328.078 223.576 373.44C239.019 377.747 255.973 376.372 270.942 368.712C270.141 357.5 268.079 346.404 264.773 335.724Z" fill="#FFDC95"/>
<path d="M201.895 223.221C194.751 230.362 188.714 236.396 177.734 247.372C164.377 260.728 164.373 282.316 177.734 295.634C190.112 307.984 196.8 314.655 217.028 334.835C230.132 347.898 251.222 348.157 264.638 335.579C265.262 335.026 263.861 336.386 289.472 310.787C283.218 260.017 251.682 232.223 201.895 223.221Z" fill="#FFAEC3"/>
<path d="M216.716 334.524C216.725 334.533 216.734 334.542 216.742 334.55C216.706 334.514 216.719 334.527 216.716 334.524Z" fill="#FFAEC3"/>
<path d="M216.754 334.561C216.834 334.641 216.85 334.658 216.769 334.576C216.764 334.572 216.758 334.566 216.754 334.561Z" fill="#FFAEC3"/>
<path d="M217.028 334.835L217.026 334.833C217.033 334.84 217.035 334.842 217.028 334.835Z" fill="#FFAEC3"/>
<path d="M216.754 334.561C216.753 334.559 216.751 334.558 216.749 334.557C216.749 334.557 216.752 334.56 216.754 334.561Z" fill="#FFAEC3"/>
<path d="M216.716 334.524C216.715 334.523 216.715 334.523 216.716 334.524V334.524Z" fill="#FFAEC3"/>
<path d="M216.822 334.63C216.959 334.766 216.983 334.79 216.837 334.645C216.832 334.64 216.828 334.635 216.822 334.63Z" fill="#FFAEC3"/>
<path d="M217.025 334.832C216.972 334.779 217.032 334.839 217.025 334.832V334.832Z" fill="#FFAEC3"/>
<path d="M216.937 334.744C216.942 334.749 216.947 334.753 216.952 334.758C216.813 334.621 216.792 334.599 216.937 334.744Z" fill="#FFAEC3"/>
<path d="M217.003 334.81C216.996 334.804 216.988 334.795 216.979 334.786C216.929 334.737 216.953 334.76 217.003 334.81Z" fill="#FFAEC3"/>
<path d="M216.937 334.744C216.941 334.747 216.948 334.755 216.952 334.758C216.946 334.753 216.942 334.749 216.937 334.744Z" fill="#FFAEC3"/>
<path d="M289.472 310.787C283.217 260.017 251.681 232.223 201.896 223.221L179.643 245.464C203.994 279.111 233.554 308.673 267.222 333.038C269.957 330.305 275.945 324.308 289.472 310.787Z" fill="#FF91B3"/>
<path d="M512.318 114.534C511.344 51.6728 460.536 0.98465 397.808 0.0134197C332.625 -0.99091 279.615 52.5385 279.615 115.206C279.351 142.041 268.483 167.049 250.323 185.22L243.465 192.077C240.231 219.453 245.973 235.945 258.745 248.758C271.631 261.685 298.395 274.616 320.191 268.927C325.067 264.382 331.55 256.253 344.673 248.033C360.276 238.259 378.41 232.9 397.124 232.716C459.953 232.716 513.319 179.557 512.318 114.534Z" fill="#D7F5F8"/>
<path d="M473.388 29.502C453.244 11.5337 426.817 0.463351 397.808 0.0134197C332.625 -0.99091 279.615 52.5385 279.615 115.206C279.351 142.041 268.483 167.049 250.323 185.22L243.465 192.077C234.22 202.214 246.51 236.327 258.745 248.758C272.004 262.229 305.98 278.13 320.191 268.927C325.067 264.382 331.55 256.253 344.673 248.033C273.155 201.206 322.625 8.95309 473.388 29.502Z" fill="#B6E9F4"/>
<path d="M369.591 297.02C301.005 266.008 246.383 210.979 215.704 143.185C215.322 142.512 213.966 138.996 210.377 135.406C200.654 125.684 184.179 124.929 173.658 135.437C166.025 143.081 163.905 154.666 168.363 164.502C169.691 167.243 175.054 179.648 185.052 196.869C222.411 261.22 279.184 313.083 348.19 344.33C358 348.77 369.598 346.701 377.246 339.034C389.979 326.299 386.243 304.594 369.591 297.02Z" fill="#FFAEC3"/>
<path d="M190.308 176.505C200.032 163.436 218.349 161.721 230.305 171.422C215.51 146.072 216.704 141.732 210.377 135.406C200.654 125.684 184.179 124.929 173.658 135.437C166.025 143.081 163.905 154.666 168.363 164.502C169.691 167.243 175.054 179.648 185.052 196.869C184.114 189.804 185.878 182.474 190.308 176.505Z" fill="#FF91B3"/>
<path d="M351.684 72.6168C348.654 69.5873 348.654 64.6753 351.683 61.6457L360.464 52.8643C363.494 49.8348 368.406 49.8348 371.435 52.8633C374.465 55.8928 374.465 60.8048 371.436 63.8344L362.655 72.6158C359.626 75.6453 354.714 75.6474 351.684 72.6168Z" fill="#495560"/>
<path d="M439.458 160.381C436.427 157.354 436.424 152.442 439.452 149.411L448.223 140.63C451.251 137.598 456.162 137.595 459.194 140.624C462.224 143.651 462.228 148.563 459.2 151.595L450.429 160.376C447.404 163.405 442.493 163.412 439.458 160.381Z" fill="#495560"/>
<path d="M381.535 98.175C381.829 93.9012 385.532 90.6772 389.808 90.9699C394.083 91.2657 397.308 94.9696 397.013 99.2434C396.391 108.253 403.865 115.656 412.829 115.05C417.085 114.751 420.807 117.98 421.103 122.254C421.398 126.528 418.173 130.232 413.898 130.527C395.574 131.797 380.265 116.594 381.535 98.175Z" fill="#495560"/>
</g>
<defs>
<clipPath id="clip0_18_210">
<rect width="512" height="512" fill="white" transform="translate(0.333496)"/>
</clipPath>
</defs>
</svg>
