<svg width="683" height="684" viewBox="0 0 683 684" fill="none" xmlns="http://www.w3.org/2000/svg">
<g clip-path="url(#clip0_18_266)">
<mask id="mask0_18_266" style="mask-type:luminance" maskUnits="userSpaceOnUse" x="0" y="0" width="683" height="684">
<path d="M0 0.66687H682.667V683.333H0V0.66687Z" fill="white"/>
</mask>
<g mask="url(#mask0_18_266)">
<path d="M647.406 366.485C659.78 384.798 667.005 406.877 667.005 430.644C667.005 492.781 617.616 543.384 555.953 545.337" stroke="#EBEBF5" stroke-width="20" stroke-miterlimit="10" stroke-linecap="round" stroke-linejoin="round"/>
<path d="M204.611 1.22949H38.8307C17.784 1.22949 0.562683 18.4508 0.562683 39.4975V118.848C0.562683 139.895 17.784 157.116 38.8307 157.116H68.7853L86.7253 180.924C95.1067 192.044 110.143 192.044 118.524 180.924L136.464 157.116H204.611C225.659 157.116 242.879 139.895 242.879 118.848V39.4975C242.879 18.4508 225.659 1.22949 204.611 1.22949Z" fill="#FFEAB7"/>
<path d="M98.1967 118.848V39.4973C98.1967 18.4506 115.417 1.22925 136.465 1.22925H38.8314C17.7834 1.22925 0.563354 18.4506 0.563354 39.4973V118.848C0.563354 139.896 17.7834 157.116 38.8314 157.116H68.7847L86.7247 180.924C95.1074 192.044 110.142 192.044 118.525 180.924L136.465 157.116C115.417 157.116 98.1967 139.896 98.1967 118.848Z" fill="#FAD989"/>
<path d="M635.094 385.953L655.018 360.131C687.18 318.443 691.708 261.629 666.366 215.477C608.932 110.88 531.294 50.9415 472.554 18.0561C426.264 -7.85721 368.956 -3.52383 326.955 28.8802L299.334 50.1935C280.652 64.6055 278.884 92.1495 295.567 108.833L328.274 141.539C354.752 168.019 397.683 168.019 424.162 141.539L430.06 135.643C439.438 126.263 454.106 124.568 465.28 131.712C503.039 155.852 531.978 187.073 553.671 217.56C561.731 228.887 560.519 244.353 550.688 254.184L543.747 261.125C517.268 287.604 517.268 330.536 543.747 357.013L576.454 389.719C593.136 406.403 620.68 404.635 635.094 385.953Z" fill="#A4E7FF"/>
<path d="M417.581 89.3036C417.581 58.993 423.969 30.1783 435.45 4.1116C398.049 -3.81506 358.254 4.73294 326.955 28.881L299.333 50.1929C280.653 64.6063 278.885 92.1503 295.567 108.833L328.274 141.54C354.731 167.998 397.617 168.016 424.101 141.598C419.847 124.873 417.581 107.353 417.581 89.3036Z" fill="#5AD6FF"/>
<path d="M208.238 275.973H176.456C164.764 275.973 155.199 266.408 155.199 254.717V225.254C155.199 213.564 164.764 203.998 176.456 203.998H208.238C219.93 203.998 229.494 213.564 229.494 225.254V254.717C229.494 266.408 219.93 275.973 208.238 275.973Z" fill="#5AD6FF"/>
<path d="M379.651 275.973H347.87C336.179 275.973 326.612 266.408 326.612 254.717V225.254C326.612 213.564 336.179 203.998 347.87 203.998H379.651C391.343 203.998 400.907 213.564 400.907 225.254V254.717C400.907 266.408 391.343 275.973 379.651 275.973Z" fill="#5AD6FF"/>
<path d="M190.853 254.716V225.254C190.853 214.216 199.382 205.083 210.174 204.096C209.535 204.038 208.891 203.998 208.238 203.998H176.455C164.765 203.998 155.199 213.564 155.199 225.254V254.716C155.199 266.407 164.765 275.972 176.455 275.972H208.238C208.891 275.972 209.535 275.932 210.174 275.874C199.382 274.887 190.853 265.754 190.853 254.716Z" fill="#00C5FD"/>
<path d="M362.267 254.716V225.254C362.267 214.216 370.795 205.083 381.587 204.096C380.95 204.038 380.304 203.998 379.651 203.998H347.87C336.179 203.998 326.612 213.564 326.612 225.254V254.716C326.612 266.407 336.179 275.972 347.87 275.972H379.651C380.304 275.972 380.95 275.932 381.587 275.874C370.795 274.887 362.267 265.754 362.267 254.716Z" fill="#00C5FD"/>
<path d="M509.445 401.114L485.357 380.544C460.947 359.7 446.889 329.214 446.889 297.116V283.812C446.889 267.939 434.488 255.07 419.192 255.07H136.916C121.619 255.07 109.217 267.939 109.217 283.812V297.116C109.217 329.214 95.16 359.7 70.7507 380.544L46.6613 401.114C17.1173 426.34 0 463.962 0 503.664V611.479C0 650.852 30.7587 682.771 68.7013 682.771H278.053H487.407C525.349 682.771 556.107 650.852 556.107 611.479V503.664C556.107 463.962 538.989 426.34 509.445 401.114Z" fill="#A4E7FF"/>
<path d="M85.707 611.479V503.665C85.707 463.961 102.824 426.341 132.368 401.114L156.458 380.544C180.867 359.701 194.924 329.214 194.924 297.117V283.813C194.924 267.94 207.326 255.069 222.623 255.069H136.916C121.619 255.069 109.218 267.94 109.218 283.813V297.117C109.218 329.214 95.1604 359.701 70.751 380.544L46.6617 401.114C17.1177 426.341 0.000366211 463.961 0.000366211 503.665V611.479C0.000366211 650.851 30.759 682.771 68.7017 682.771H154.407C116.466 682.771 85.707 650.851 85.707 611.479Z" fill="#5AD6FF"/>
<path d="M403.897 510.369C403.897 579.872 347.555 636.214 278.053 636.214C208.552 636.214 152.209 579.872 152.209 510.369C152.209 440.868 208.552 384.525 278.053 384.525C347.555 384.525 403.897 440.868 403.897 510.369Z" fill="#F0F0F0"/>
<path d="M210.174 510.369C210.174 450.842 251.506 400.974 307.035 387.885C297.73 385.692 288.029 384.525 278.054 384.525C208.553 384.525 152.21 440.868 152.21 510.369C152.21 579.872 208.553 636.214 278.054 636.214C288.029 636.214 297.73 635.048 307.035 632.853C251.506 619.765 210.174 569.897 210.174 510.369Z" fill="#D9D9D9"/>
<path d="M305.48 510.369C305.48 525.515 293.201 537.795 278.053 537.795C262.907 537.795 250.628 525.515 250.628 510.369C250.628 495.222 262.907 482.943 278.053 482.943C293.201 482.943 305.48 495.222 305.48 510.369Z" fill="#C6C6C6"/>
<path d="M75.6602 79.1735C75.6602 84.8629 71.0482 89.4749 65.3575 89.4749C59.6682 89.4749 55.0562 84.8629 55.0562 79.1735C55.0562 73.4829 59.6682 68.8709 65.3575 68.8709C71.0482 68.8709 75.6602 73.4829 75.6602 79.1735Z" fill="#495560"/>
<path d="M131.311 79.1735C131.311 84.8629 126.699 89.4749 121.01 89.4749C115.321 89.4749 110.707 84.8629 110.707 79.1735C110.707 73.4829 115.321 68.8709 121.01 68.8709C126.699 68.8709 131.311 73.4829 131.311 79.1735Z" fill="#495560"/>
<path d="M186.963 79.1735C186.963 84.8629 182.351 89.4749 176.662 89.4749C170.972 89.4749 166.359 84.8629 166.359 79.1735C166.359 73.4829 170.972 68.8709 176.662 68.8709C182.351 68.8709 186.963 73.4829 186.963 79.1735Z" fill="#495560"/>
<path d="M288.355 427.555C288.355 433.244 283.743 437.856 278.053 437.856C272.363 437.856 267.751 433.244 267.751 427.555C267.751 421.864 272.363 417.252 278.053 417.252C283.743 417.252 288.355 421.864 288.355 427.555Z" fill="#D9D9D9"/>
<path d="M288.355 593.184C288.355 598.874 283.743 603.486 278.053 603.486C272.363 603.486 267.751 598.874 267.751 593.184C267.751 587.494 272.363 582.881 278.053 582.881C283.743 582.881 288.355 587.494 288.355 593.184Z" fill="#D9D9D9"/>
<path d="M211.484 460.042C216.41 462.886 218.098 469.185 215.254 474.113C212.409 479.038 206.11 480.727 201.184 477.882C196.257 475.038 194.569 468.738 197.414 463.811C200.258 458.886 206.557 457.197 211.484 460.042Z" fill="#B7B7B7"/>
<path d="M354.923 542.857C359.85 545.701 361.538 552 358.694 556.927C355.849 561.853 349.55 563.541 344.623 560.697C339.697 557.852 338.009 551.552 340.853 546.627C343.698 541.7 349.998 540.012 354.923 542.857Z" fill="#D9D9D9"/>
<path d="M201.184 542.857C206.11 540.012 212.409 541.7 215.254 546.627C218.098 551.552 216.41 557.852 211.484 560.697C206.557 563.541 200.258 561.853 197.414 556.927C194.57 552 196.257 545.701 201.184 542.857Z" fill="#B7B7B7"/>
<path d="M344.624 460.042C349.549 457.197 355.849 458.886 358.694 463.811C361.538 468.738 359.85 475.038 354.924 477.882C349.997 480.727 343.698 479.038 340.853 474.113C338.009 469.185 339.697 462.886 344.624 460.042Z" fill="#D9D9D9"/>
<path d="M195.87 313.767V329.559" stroke="#495560" stroke-width="20" stroke-miterlimit="10" stroke-linecap="round" stroke-linejoin="round"/>
<path d="M360.238 313.771L360.237 329.564" stroke="#495560" stroke-width="20" stroke-miterlimit="10" stroke-linecap="round" stroke-linejoin="round"/>
<path d="M256.386 329.09C261.654 335.136 269.403 338.961 278.053 338.961C286.702 338.961 294.451 335.137 299.719 329.092" stroke="#495560" stroke-width="20" stroke-miterlimit="10" stroke-linecap="round" stroke-linejoin="round"/>
</g>
</g>
<defs>
<clipPath id="clip0_18_266">
<rect width="682.667" height="682.667" fill="white" transform="translate(0 0.666748)"/>
</clipPath>
</defs>
</svg>
