<svg width="513" height="513" viewBox="0 0 513 513" fill="none" xmlns="http://www.w3.org/2000/svg">
<g clip-path="url(#clip0_18_241)">
<path d="M216.657 394.445C226.053 417.522 225.267 459.05 220.589 491.42C218.825 503.629 208.327 512.667 195.991 512.667H152.922C140.586 512.667 130.089 503.629 128.324 491.42C123.646 459.05 122.86 417.522 132.256 394.445H216.657Z" fill="#F1B3C1"/>
<path d="M126.155 472.541C126.716 479.033 127.452 485.386 128.324 491.421C130.089 503.629 140.586 512.667 152.922 512.667H195.991C208.327 512.667 218.824 503.629 220.589 491.42C221.461 485.386 222.197 479.032 222.758 472.54H126.155V472.541Z" fill="#CB8A5A"/>
<path d="M296.676 394.445C287.28 417.522 288.066 459.05 292.744 491.42C294.509 503.629 305.007 512.667 317.343 512.667H360.412C372.748 512.667 383.245 503.629 385.01 491.42C389.688 459.05 390.474 417.522 381.078 394.445H296.676Z" fill="#F1B3C1"/>
<path d="M387.179 472.541C386.618 479.033 385.882 485.386 385.01 491.421C383.245 503.629 372.748 512.667 360.412 512.667H317.343C305.007 512.667 294.51 503.629 292.745 491.42C291.873 485.386 291.136 479.032 290.576 472.54H387.179V472.541Z" fill="#CB8A5A"/>
<path d="M308.591 126.139C337.287 97.4425 337.287 50.9164 308.591 22.2199C279.894 -6.47658 233.368 -6.47657 204.672 22.2199C175.975 50.9164 175.975 97.4425 204.672 126.139C233.368 154.835 279.894 154.835 308.591 126.139Z" fill="#F6EE86"/>
<path d="M256.667 87.5979C232.624 87.5979 209.127 90.8509 186.847 97.1049C196.487 126.454 224.093 147.654 256.667 147.654C289.241 147.654 316.847 126.454 326.487 97.1049C304.207 90.8509 280.71 87.5979 256.667 87.5979Z" fill="#EED076"/>
<path d="M286.452 104C302.921 87.5306 302.921 60.8283 286.452 44.3589C269.982 27.8895 243.28 27.8895 226.811 44.3589C210.341 60.8283 210.341 87.5306 226.811 104C243.28 120.469 269.982 120.469 286.452 104Z" fill="#EED076"/>
<path d="M452.989 286.285C452.989 193.622 365.093 118.503 256.667 118.503C148.241 118.503 60.3447 193.622 60.3447 286.285C60.3447 378.948 148.241 441.376 256.667 441.376C365.093 441.376 452.989 378.948 452.989 286.285Z" fill="#F8D2E3"/>
<path d="M101.139 143.058C84.5857 149.083 70.7357 159.248 60.3347 171.958C51.5727 182.664 53.1457 198.565 63.7767 207.419C88.9717 228.404 117.645 238.469 133.735 232.612C149.824 226.756 165.321 200.615 171.132 168.345C173.584 154.729 164.569 141.538 150.975 138.968C134.835 135.918 117.692 137.034 101.139 143.058Z" fill="#F1B3C1"/>
<path d="M412.195 143.058C428.748 149.083 442.597 159.248 452.999 171.958C461.761 182.664 460.188 198.565 449.557 207.419C424.362 228.404 395.689 238.469 379.599 232.612C363.51 226.756 348.013 200.615 342.202 168.345C339.75 154.729 348.765 141.538 362.359 138.968C378.499 135.918 395.642 137.034 412.195 143.058Z" fill="#F1B3C1"/>
<path d="M256.667 369.863C289.366 369.863 323.309 377.249 326.263 341.302C329.218 305.355 281.945 282.218 256.667 282.218C231.389 282.218 184.116 305.356 187.071 341.302C190.025 377.249 223.968 369.863 256.667 369.863Z" fill="#F1B3C1"/>
<path d="M256.667 369.863C259.569 369.863 262.48 369.922 265.379 370.002C225.337 355.234 216.51 312.024 228.258 288.884C206.44 298.2 185.054 316.765 187.071 341.302C190.025 377.249 223.968 369.863 256.667 369.863Z" fill="#E7889D"/>
<path d="M233.138 342.577C228.996 342.577 225.638 339.22 225.638 335.077V326.67C225.638 322.528 228.996 319.17 233.138 319.17C237.28 319.17 240.638 322.528 240.638 326.67V335.077C240.638 339.22 237.28 342.577 233.138 342.577Z" fill="#4E5660"/>
<path d="M280.196 342.577C276.054 342.577 272.696 339.22 272.696 335.077V326.67C272.696 322.528 276.054 319.17 280.196 319.17C284.338 319.17 287.696 322.528 287.696 326.67V335.077C287.696 339.22 284.338 342.577 280.196 342.577Z" fill="#4E5660"/>
<path d="M170.58 317.175C188.123 317.175 202.345 305.85 202.345 291.879C202.345 277.908 188.123 266.583 170.58 266.583C153.036 266.583 138.815 277.908 138.815 291.879C138.815 305.85 153.036 317.175 170.58 317.175Z" fill="white"/>
<path d="M342.754 317.175C360.297 317.175 374.519 305.85 374.519 291.879C374.519 277.908 360.297 266.583 342.754 266.583C325.21 266.583 310.989 277.908 310.989 291.879C310.989 305.85 325.21 317.175 342.754 317.175Z" fill="white"/>
<path d="M189.092 274.717C184.95 274.717 181.592 271.36 181.592 267.217V254.855C181.592 250.712 184.95 247.355 189.092 247.355C193.234 247.355 196.592 250.712 196.592 254.855V267.217C196.592 271.359 193.234 274.717 189.092 274.717Z" fill="#4E5660"/>
<path d="M340.955 274.372C336.813 274.372 333.455 271.015 333.455 266.872C333.455 263.108 330.393 260.046 326.629 260.046C322.865 260.046 319.803 263.109 319.803 266.872C319.803 271.015 316.445 274.372 312.303 274.372C308.161 274.372 304.803 271.015 304.803 266.872C304.803 254.837 314.594 245.046 326.629 245.046C338.664 245.046 348.455 254.837 348.455 266.872C348.455 271.015 345.097 274.372 340.955 274.372Z" fill="#4E5660"/>
</g>
<defs>
<clipPath id="clip0_18_241">
<rect width="512" height="512" fill="white" transform="translate(0.666687 0.666748)"/>
</clipPath>
</defs>
</svg>
