<svg width="513" height="513" viewBox="0 0 513 513" fill="none" xmlns="http://www.w3.org/2000/svg">
<g clip-path="url(#clip0_18_325)">
<path d="M322.621 12.9427C344.035 0.578747 375.278 14.6027 388.84 38.0917C404.979 66.0457 399.749 100.937 395.171 119.326C393.341 126.677 385.759 131.054 378.477 128.964C360.263 123.735 327.431 110.818 311.292 82.8637C297.73 59.3747 301.207 25.3067 322.621 12.9427Z" fill="#73DA8C"/>
<path d="M504.386 44.9928C488.492 26.0508 454.337 28.5428 433.559 45.9768C408.833 66.7248 401.813 101.301 399.826 120.147C399.032 127.681 404.659 134.387 412.217 134.913C431.121 136.229 466.391 135.32 491.117 114.572C511.895 97.1388 520.281 63.9348 504.386 44.9928Z" fill="#73DA8C"/>
<path d="M418.405 1.1697C394.053 -3.1243 369.491 20.7397 364.781 47.4507C359.176 79.2387 376.024 110.238 386.616 125.951C390.85 132.233 399.472 133.753 405.599 129.298C420.926 118.155 447.36 94.7877 452.965 62.9997C457.676 36.2887 442.757 5.4637 418.405 1.1697Z" fill="#8CE09F"/>
<path d="M477.27 202.459C476.992 205.395 476.59 208.352 476.065 211.319C474.602 219.602 472.397 227.967 469.585 236.301C380.589 223.084 346.777 166.67 380.134 93.4766C387.304 92.8896 394.608 93.1986 401.953 94.4966C445.107 102.12 475.539 141.236 477.651 186.832C477.651 186.832 467.818 190.9 467.756 193.506C467.694 196.112 477.27 202.459 477.27 202.459Z" fill="#FFCE71"/>
<path d="M469.585 236.3C466 246.962 461.426 257.573 456.193 267.865L354.473 327.008C351.949 327.461 335.209 323.948 312.813 318.581C296.67 280.268 284.318 224.474 292.343 178.93C293.723 171.111 295.887 163.632 298.741 156.595C298.741 156.595 308.779 152.164 309.966 149.756C311.153 147.348 305.86 142.152 305.86 142.152C322.168 114.43 349.818 95.9376 380.136 93.4756C371.233 154.525 405.817 210.556 469.585 236.3Z" fill="#FFB357"/>
<path d="M477.27 202.459L427.553 193.692C423.35 192.95 420.548 188.943 421.29 184.74C422.032 180.537 426.029 177.735 430.242 178.477L477.651 186.832C477.888 191.972 477.775 197.195 477.27 202.459Z" fill="#FCE3A0"/>
<path d="M405.004 226.361C404.558 226.361 404.108 226.322 403.653 226.242L332.663 213.724C328.461 212.983 325.655 208.976 326.396 204.773C327.137 200.57 331.138 197.768 335.347 198.505L406.337 211.023C410.539 211.764 413.345 215.771 412.604 219.974C411.943 223.723 408.683 226.361 405.004 226.361Z" fill="#FFCE71"/>
<path d="M374.777 162.148C374.107 165.898 370.852 168.535 367.174 168.535C366.731 168.535 366.278 168.494 365.824 168.422L298.739 156.596C300.768 151.548 303.148 146.727 305.857 142.153L368.502 153.197C372.707 153.937 375.519 157.945 374.777 162.148Z" fill="#FFCE71"/>
<path d="M314.831 276.509C314.038 301.851 192.837 371.811 170.492 359.871C152.721 338.979 137.516 319.982 123.691 300.914C113.976 303.459 103.644 303.253 93.9387 300.172C93.9387 300.172 49.5227 125.272 85.5217 7.48666C96.5347 5.01366 108.444 5.37466 120.301 9.10366C125.679 10.8037 131.499 10.0927 136.444 7.36266C149.507 0.140657 165.505 -1.60034 180.639 3.91166C195.319 9.24866 206.249 20.3537 211.781 33.7357C214.501 40.2877 220.558 44.7897 227.553 45.9327C242.851 48.4257 256.944 57.5227 265.299 71.9967C271.429 82.5977 273.51 94.4237 272.026 105.694C271.016 113.359 274.179 120.93 280.453 125.463C293.907 135.188 302.653 151.001 302.653 168.875C302.653 183.545 296.75 196.844 287.18 206.518C296.772 228.019 305.621 250.683 314.831 276.509Z" fill="#8CE09F"/>
<path d="M243.1 190.963L93.9398 300.173C87.4498 298.123 81.2377 294.785 75.6957 290.139C64.5487 280.795 58.1827 267.856 56.8437 254.443C56.0917 246.892 51.3527 240.381 44.3267 237.528C33.6647 233.212 24.3207 225.434 18.1187 214.71C9.76375 200.236 8.93975 183.475 14.4207 168.98C16.9347 162.356 16.0587 154.856 11.7527 149.232C2.93475 137.746 -1.22725 122.736 1.49175 107.345C4.28375 91.4898 13.7917 78.4998 26.5767 70.7938C31.4087 67.8788 34.9417 63.1908 36.1577 57.6898C41.9888 31.4198 61.6647 12.8258 85.5238 7.48877C87.6657 74.8718 114.615 165.693 243.1 190.963Z" fill="#73DA8C"/>
<path d="M197.456 229.796C193.283 229.796 189.847 226.47 189.736 222.274C188.697 182.998 200.629 147.04 225.2 115.398C227.818 112.028 232.671 111.419 236.042 114.034C239.412 116.651 240.023 121.505 237.406 124.876C215.084 153.622 204.243 186.254 205.185 221.866C205.298 226.132 201.931 229.681 197.665 229.794C197.595 229.795 197.525 229.796 197.456 229.796Z" fill="#FFF8E6"/>
<path d="M192.453 74.9617C188.808 72.7397 184.055 73.8937 181.834 77.5367C170.495 96.1357 163.173 116.129 159.938 137.249L144.804 115.832C144.427 93.8537 148.532 72.9547 157.015 53.6917C158.735 49.7867 156.963 45.2267 153.058 43.5067C149.154 41.7867 144.593 43.5587 142.873 47.4637C136.218 62.5767 131.997 78.5727 130.25 95.2347L97.1327 48.3647C95.0417 45.3977 92.1157 44.3157 89.3237 44.5427C89.4567 87.3107 121.883 154.078 184.616 172.172L173.597 156.578C174.596 131.14 181.785 107.3 195.028 85.5797C197.25 81.9377 196.097 77.1827 192.453 74.9617Z" fill="#FFF8E6"/>
<path d="M213.059 212.957C212.462 211.762 211.771 210.608 210.978 209.485L184.616 172.172C122.63 142.616 97.9057 91.9107 89.3237 44.5427C83.7607 45.0067 78.7127 50.6927 81.7417 57.2557L105.768 109.365C90.4667 102.548 74.5037 98.2057 58.0897 96.4127C53.8507 95.9487 50.0337 99.0117 49.5697 103.255C49.1067 107.497 52.1697 111.311 56.4117 111.775C77.3327 114.06 97.4827 120.953 116.327 132.266L127.307 156.081C107.403 148.323 86.4317 144.668 64.6537 145.191C60.3877 145.293 57.0127 148.834 57.1137 153.1C57.2157 157.366 60.7437 160.754 65.0227 160.64C90.4447 160.028 114.687 165.723 137.217 177.575L151.312 208.146C127.475 200.22 102.188 198.043 75.7587 201.678C71.5317 202.259 68.5757 206.158 69.1567 210.385C69.7367 214.611 73.6267 217.565 77.8637 216.987C107.197 212.953 134.956 216.785 160.64 228.38L164.34 236.405C165.772 239.526 167.719 242.225 170.027 244.471L178.823 238.029C179.845 238.493 180.929 238.717 182.002 238.717C184.601 238.717 187.138 237.406 188.596 235.028C189.542 233.486 189.881 231.743 189.682 230.076L213.059 212.957Z" fill="#FFF1CF"/>
<path d="M364.836 248.137C364.836 307.877 316.407 356.306 256.667 356.306C220.683 356.306 188.809 338.741 169.153 311.709C186.429 315.881 190.345 202.458 220.816 146.056C232.035 142.111 244.098 139.968 256.666 139.968C316.407 139.968 364.836 188.397 364.836 248.137Z" fill="#FF6E80"/>
<path d="M306.342 257.254L201.377 318.293C199.45 318.633 186.429 315.882 169.153 311.71C156.152 293.867 148.498 271.904 148.498 248.138C148.498 200.966 178.693 160.84 220.817 146.057C221.981 191.158 247.282 242.76 306.342 257.254Z" fill="#FD5C6F"/>
<path d="M328.78 248.137C328.78 287.964 296.494 320.25 256.667 320.25C242.306 320.25 228.924 316.047 217.685 308.815C217.685 308.815 215.939 236.3 226.977 182.401C236.032 178.301 246.087 176.024 256.667 176.024C296.494 176.024 328.78 208.31 328.78 248.137Z" fill="#FFA1AC"/>
<path d="M306.342 257.254L217.685 308.815C197.751 295.989 184.554 273.603 184.554 248.137C184.554 218.89 201.964 193.713 226.977 182.401C237.722 215.862 262.9 246.592 306.342 257.254Z" fill="#FF8A98"/>
<path d="M256.667 219.365C252.4 219.365 248.941 215.906 248.941 211.639V206.929C248.941 202.662 252.4 199.203 256.667 199.203C260.935 199.203 264.393 202.662 264.393 206.929V211.639C264.393 215.906 260.935 219.365 256.667 219.365Z" fill="#FFF8E6"/>
<path d="M284.63 232.402C282.425 232.402 280.236 231.463 278.707 229.642C275.964 226.373 276.39 221.5 279.659 218.757L283.267 215.73C286.537 212.987 291.41 213.413 294.152 216.682C296.895 219.951 296.469 224.824 293.2 227.567L289.592 230.594C288.145 231.809 286.382 232.402 284.63 232.402Z" fill="#FFF8E6"/>
<path d="M228.704 232.402C226.951 232.402 225.189 231.809 223.742 230.594L220.134 227.567C216.865 224.825 216.439 219.951 219.182 216.682C221.923 213.413 226.797 212.986 230.067 215.73L233.675 218.757C236.944 221.499 237.37 226.373 234.627 229.642C233.099 231.464 230.909 232.402 228.704 232.402Z" fill="#FFF1CF"/>
<path d="M512.585 278.363C505.363 361.313 458.707 432.983 391.467 474.499C221.672 474.499 146.006 343.316 222.023 255.771H491.992C504.168 255.771 513.646 266.227 512.585 278.363Z" fill="#B5E9F1"/>
<path d="M391.466 474.499C352.278 498.698 306.105 512.667 256.667 512.667C122.393 512.667 12.1837 409.659 0.749727 278.363C-0.311273 266.227 9.16573 255.771 21.3427 255.771H222.022C217.458 335.764 268.257 447.323 391.466 474.499Z" fill="#9BE1EC"/>
<path d="M202.839 393.793C202.846 407.636 188.759 418.865 171.376 418.874C153.993 418.883 139.895 407.668 139.888 393.825C139.881 379.982 153.967 368.752 171.351 368.743C188.734 368.735 202.832 379.95 202.839 393.793Z" fill="white"/>
<path d="M310.495 393.738C310.502 407.581 324.6 418.796 341.983 418.787C359.366 418.778 373.453 407.549 373.446 393.706C373.439 379.862 359.341 368.647 341.958 368.656C324.575 368.666 310.488 379.895 310.495 393.738Z" fill="white"/>
<path d="M287.515 382.419C287.505 363.351 273.691 361.566 256.651 361.574C239.611 361.583 225.799 363.381 225.808 382.449C225.818 401.516 239.639 416.967 256.679 416.958C273.719 416.95 287.524 401.487 287.515 382.419Z" fill="#666667"/>
<path d="M174.712 374.257C170.446 374.257 166.988 370.8 166.986 366.534C166.983 360.469 169.342 354.765 173.629 350.474C177.916 346.183 183.617 343.818 189.683 343.815H189.694C202.211 343.815 212.396 353.994 212.402 366.512C212.404 370.779 208.947 374.24 204.679 374.242C204.678 374.242 204.676 374.242 204.675 374.242C200.409 374.242 196.951 370.786 196.949 366.519C196.947 362.52 193.692 359.268 189.694 359.268C189.692 359.268 189.691 359.268 189.69 359.268C187.752 359.269 185.931 360.025 184.561 361.396C183.191 362.767 182.437 364.589 182.438 366.527C182.44 370.794 178.983 374.255 174.715 374.257C174.714 374.257 174.713 374.257 174.712 374.257Z" fill="#666667"/>
<path d="M308.632 374.191C304.366 374.191 300.908 370.735 300.906 366.468C300.9 353.947 311.081 343.756 323.602 343.749H323.613C329.674 343.749 335.374 346.108 339.662 350.392C343.953 354.679 346.318 360.38 346.321 366.446C346.323 370.713 342.865 374.174 338.599 374.176C338.598 374.176 338.596 374.176 338.595 374.176C334.329 374.177 330.871 370.719 330.869 366.453C330.868 364.515 330.112 362.694 328.741 361.324C327.371 359.955 325.55 359.201 323.613 359.201C323.612 359.201 323.611 359.201 323.61 359.201C319.61 359.203 316.356 362.46 316.358 366.461C316.36 370.728 312.902 374.189 308.636 374.191C308.635 374.191 308.633 374.191 308.632 374.191Z" fill="#666667"/>
</g>
<defs>
<clipPath id="clip0_18_325">
<rect width="512" height="512" fill="white" transform="translate(0.666748 0.666748)"/>
</clipPath>
</defs>
</svg>
