<svg width="513" height="513" viewBox="0 0 513 513" fill="none" xmlns="http://www.w3.org/2000/svg">
<g clip-path="url(#clip0_18_432)">
<path d="M512.667 256.668C512.667 397.608 398.486 512.621 256.714 512.621C139.756 512.621 39.5787 433.701 9.79514 324.288C-25.4175 195.562 44.1869 62.3115 167.919 16.5468C218.882 -2.33873 274.155 -3.97743 324.333 9.74808C433.78 39.5027 512.667 139.674 512.667 256.668Z" fill="#A4E7FF"/>
<path d="M489.11 364.044C463.639 419.117 419.154 463.592 364.09 489.064L325.043 407.417C313.579 383.448 318.317 355.835 337.094 337.047C355.88 318.27 383.494 313.533 407.462 324.997L489.11 364.044Z" fill="#83DEFF"/>
<path d="M298.872 509.159C285.163 511.436 271.073 512.621 256.714 512.621C233.303 512.621 210.633 509.479 189.096 503.588C181.896 501.631 174.83 499.355 167.908 496.79C97.9832 470.925 42.4563 415.388 16.593 345.463C14.0284 338.542 11.7518 331.476 9.7952 324.287C3.90327 302.75 0.761841 280.08 0.761841 256.668C0.761841 233.256 3.90327 210.587 9.7952 189.049C11.7518 181.851 14.0284 174.784 16.593 167.863C42.4563 97.936 97.9932 42.4101 167.919 16.5468C174.841 13.9822 181.907 11.7056 189.096 9.74799C197.5 7.45141 206.101 5.56675 214.835 4.13501C214.835 4.13501 92.1013 325.996 298.872 509.159Z" fill="#83DEFF"/>
<path d="M384.268 365.331C386.565 350.469 388.408 335.153 389.747 319.517C391.509 299.04 392.415 277.998 392.415 256.667C392.415 219.031 389.582 182.323 384.267 148.003C431.41 157.025 472.712 171.044 503.633 189.048C501.676 181.859 499.399 174.793 496.835 167.871C465.245 152.123 425.684 139.876 381.538 131.842C373.504 87.7069 361.257 48.1351 345.519 16.5458C338.597 13.9813 331.532 11.7047 324.332 9.74707C342.336 40.6675 356.354 81.9699 365.378 129.113C331.058 123.798 294.349 120.966 256.713 120.966C232.478 120.966 208.623 122.14 185.551 124.406C172.79 125.642 160.265 127.229 148.049 129.123C157.071 81.9699 171.09 40.6685 189.095 9.74707C181.905 11.7047 174.839 13.9803 167.918 16.5458C152.17 48.1351 139.924 87.6979 131.889 131.842C87.754 139.876 48.1822 152.123 16.592 167.861C14.0274 174.783 11.7508 181.849 9.79419 189.048C40.7146 171.044 82.0171 157.025 129.16 148.003C123.844 182.323 121.012 219.031 121.012 256.667C121.012 294.303 123.844 331.012 129.16 365.331C82.0171 356.309 40.7146 342.291 9.79419 324.287C11.7508 331.476 14.0274 338.541 16.592 345.463C48.1812 361.211 87.743 373.458 131.889 381.493C139.923 425.628 152.169 465.199 167.907 496.789C174.829 499.353 181.895 501.63 189.095 503.587C171.091 472.667 157.072 431.364 148.049 384.221C168.854 387.444 190.546 389.752 212.784 391.071C227.225 391.926 241.902 392.369 256.713 392.369C278.044 392.369 299.088 391.463 319.563 389.701C335.198 388.362 350.514 386.519 365.377 384.211C360.607 409.126 354.449 432.414 347.022 453.385C340.42 472.11 332.819 489.003 324.331 503.587C331.521 501.63 338.586 499.354 345.507 496.789C349.298 489.197 352.882 481.143 356.25 472.666C366.9 445.908 375.439 415.027 381.537 381.492C415.063 375.393 445.952 366.855 472.711 356.204C481.188 352.837 489.242 349.251 496.834 345.472C499.398 338.551 501.675 331.485 503.632 324.286C489.047 332.772 472.155 340.373 453.43 346.976C432.461 354.403 409.184 360.563 384.268 365.331ZM368.211 368.164C352.38 370.749 335.993 372.779 319.184 374.241C298.873 376.003 277.953 376.918 256.715 376.918C239.638 376.918 222.767 376.331 206.245 375.178C185.234 373.726 164.788 371.356 145.219 368.164C139.513 333.205 136.464 295.477 136.464 256.667C136.464 217.857 139.513 180.129 145.219 145.17C157.63 143.142 170.381 141.452 183.411 140.134C207.09 137.683 231.676 136.416 256.715 136.416C295.525 136.416 333.253 139.465 368.212 145.171C373.918 180.13 376.966 217.858 376.966 256.668C376.966 277.906 376.05 298.826 374.288 319.138C372.825 335.946 370.796 352.333 368.211 368.164Z" fill="#83DEFF"/>
<path d="M472.713 356.205C445.954 366.856 415.064 375.394 381.539 381.492C375.441 415.028 366.902 445.908 356.252 472.667L347.023 453.385C354.45 432.414 360.608 409.126 365.378 384.211C350.515 386.519 335.199 388.362 319.564 389.701C318.771 384.541 318.658 379.35 319.183 374.241C335.993 372.778 352.38 370.748 368.21 368.164C370.796 352.333 372.824 335.946 374.287 319.137C379.396 318.611 384.587 318.725 389.747 319.517C388.408 335.153 386.565 350.469 384.268 365.331C409.184 360.562 432.461 354.402 453.431 346.977L472.713 356.205Z" fill="#5AD6FF"/>
<path d="M148.05 384.221C157.072 431.364 171.091 472.666 189.096 503.587C181.896 501.63 174.83 499.354 167.908 496.789C152.17 465.199 139.924 425.627 131.89 381.493C87.745 373.458 48.1832 361.211 16.5929 345.463C14.0284 338.542 11.7518 331.476 9.79517 324.287C40.7156 342.291 82.0181 356.309 129.16 365.331C123.845 331.012 121.013 294.303 121.013 256.667C121.013 219.031 123.845 182.323 129.16 148.003C82.0181 157.025 40.7156 171.044 9.79517 189.048C11.7518 181.849 14.0284 174.782 16.5929 167.861C48.1822 152.123 87.755 139.876 131.89 131.842C139.924 87.6969 152.17 48.1351 167.919 16.5458C174.841 13.9813 181.907 11.7047 189.096 9.74707C171.092 40.6675 157.073 81.9699 148.05 129.123C160.266 127.229 172.791 125.642 185.552 124.406C184.79 129.536 184.07 134.778 183.41 140.134C170.38 141.452 157.629 143.142 145.218 145.17C139.512 180.129 136.463 217.857 136.463 256.667C136.463 295.477 139.512 333.205 145.218 368.164C164.787 371.356 185.232 373.726 206.244 375.178C208.294 380.504 210.468 385.808 212.785 391.071C190.547 389.753 168.856 387.445 148.05 384.221Z" fill="#5AD6FF"/>
<path d="M456.364 475.859L454.13 482.561C445.342 508.925 408.932 511.193 396.941 486.122L352.921 394.08C340.344 367.784 367.832 340.296 394.128 352.873L486.169 396.892C511.24 408.883 508.972 445.293 482.608 454.081L475.906 456.315C466.679 459.392 459.439 466.633 456.364 475.859Z" fill="#495560"/>
<path d="M464.418 463.206C460.781 466.656 457.99 470.982 456.363 475.864L454.127 482.569C445.342 508.926 408.932 511.193 396.933 486.122L352.922 394.083C340.345 367.788 367.826 340.297 394.121 352.874C394.12 352.873 393.039 434.871 464.418 463.206Z" fill="#3D4751"/>
<path d="M140.386 163.605C153.236 163.605 163.652 153.189 163.652 140.339C163.652 127.49 153.236 117.073 140.386 117.073C127.537 117.073 117.121 127.49 117.121 140.339C117.121 153.189 127.537 163.605 140.386 163.605Z" fill="#FF6E80"/>
<path d="M140.386 396.262C153.236 396.262 163.652 385.845 163.652 372.996C163.652 360.147 153.236 349.73 140.386 349.73C127.537 349.73 117.121 360.147 117.121 372.996C117.121 385.845 127.537 396.262 140.386 396.262Z" fill="#FBF198"/>
<path d="M373.042 163.605C385.891 163.605 396.308 153.189 396.308 140.339C396.308 127.49 385.891 117.073 373.042 117.073C360.193 117.073 349.776 127.49 349.776 140.339C349.776 153.189 360.193 163.605 373.042 163.605Z" fill="#73DA8C"/>
<path d="M205.259 264.697C205.217 277.931 191.712 288.615 175.096 288.563C158.479 288.511 145.042 277.742 145.084 264.508C145.125 251.275 158.629 240.589 175.247 240.641C191.863 240.693 205.301 251.463 205.259 264.697Z" fill="white"/>
<path d="M308.17 265.019C308.129 278.251 321.566 289.021 338.183 289.073C354.8 289.125 368.304 278.44 368.345 265.208C368.387 251.975 354.95 241.205 338.333 241.153C321.716 241.1 308.211 251.785 308.17 265.019Z" fill="white"/>
<path d="M281.03 246.524C281.077 231.532 270.221 230.09 256.823 230.047C243.426 230.005 232.561 231.38 232.514 246.372C232.467 261.363 243.29 273.551 256.687 273.593C270.085 273.634 280.983 261.515 281.03 246.524Z" fill="#49525E"/>
<path d="M207.11 246.353C207.101 246.353 207.093 246.353 207.085 246.353C202.818 246.339 199.372 242.87 199.385 238.605C199.391 236.842 198.71 235.184 197.468 233.934C196.226 232.686 194.572 231.994 192.81 231.988C189.188 231.989 186.203 234.926 186.192 238.563C186.179 242.821 182.722 246.263 178.469 246.263C178.46 246.263 178.452 246.263 178.444 246.263C174.176 246.249 170.73 242.78 170.743 238.515C170.781 226.382 180.664 216.538 192.788 216.538H192.858C198.747 216.557 204.275 218.867 208.426 223.043C212.577 227.221 214.854 232.764 214.834 238.653C214.82 242.91 211.364 246.353 207.11 246.353Z" fill="#444D56"/>
<path d="M335.126 246.754C335.117 246.754 335.109 246.754 335.101 246.754C330.834 246.74 327.388 243.271 327.401 239.005C327.407 237.243 326.726 235.584 325.484 234.335C324.242 233.086 322.588 232.394 320.827 232.389C320.82 232.389 320.812 232.389 320.805 232.389C317.176 232.389 314.22 235.334 314.208 238.963C314.195 243.222 310.738 246.664 306.484 246.664C306.475 246.664 306.467 246.664 306.459 246.664C302.192 246.65 298.746 243.181 298.759 238.915C298.797 226.783 308.68 216.938 320.804 216.938H320.874C326.762 216.956 332.291 219.267 336.442 223.444C340.593 227.622 342.87 233.165 342.85 239.053C342.836 243.312 339.38 246.754 335.126 246.754Z" fill="#444D56"/>
</g>
<defs>
<clipPath id="clip0_18_432">
<rect width="512" height="512" fill="white" transform="translate(0.666748 0.666748)"/>
</clipPath>
</defs>
</svg>
